<svg width="40" height="40" viewBox="0 0 40 40" fill="none" xmlns="http://www.w3.org/2000/svg">
<mask id="mask0_932_2966" style="mask-type:alpha" maskUnits="userSpaceOnUse" x="0" y="0" width="40" height="40">
<rect width="40" height="40" fill="#D9D9D9"/>
</mask>
<g mask="url(#mask0_932_2966)">
<path d="M19.9999 36.6667C17.6944 36.6667 15.5277 36.2292 13.4999 35.3542C11.4721 34.4792 9.70825 33.2917 8.20825 31.7917C6.70825 30.2917 5.52075 28.5278 4.64575 26.5C3.77075 24.4723 3.33325 22.3056 3.33325 20C3.33325 17.6945 3.77075 15.5278 4.64575 13.5C5.52075 11.4723 6.70825 9.70837 8.20825 8.20837C9.70825 6.70837 11.4721 5.52087 13.4999 4.64587C15.5277 3.77087 17.6944 3.33337 19.9999 3.33337C23.9166 3.33337 27.3541 4.50699 30.3124 6.85421C33.2708 9.20143 35.2083 12.1945 36.1249 15.8334C36.2638 16.2778 36.2152 16.6945 35.9791 17.0834C35.743 17.4723 35.4027 17.7362 34.9583 17.875C34.5138 18.0139 34.0971 17.9584 33.7083 17.7084C33.3194 17.4584 33.0555 17.1112 32.9166 16.6667C32.3888 14.6389 31.4374 12.8334 30.0624 11.25C28.6874 9.66671 26.9999 8.47226 24.9999 7.66671V8.33337C24.9999 9.25004 24.6735 10.0348 24.0208 10.6875C23.368 11.3403 22.5833 11.6667 21.6666 11.6667H18.3333V15C18.3333 15.4723 18.1735 15.8681 17.8541 16.1875C17.5346 16.507 17.1388 16.6667 16.6666 16.6667H13.3333V20H23.3333C23.7499 20 24.0694 20.1875 24.2916 20.5625C24.5138 20.9375 24.5138 21.3195 24.2916 21.7084C23.9583 22.3473 23.7152 23.0139 23.5624 23.7084C23.4096 24.4028 23.3333 25.1112 23.3333 25.8334C23.3333 27.3056 23.6666 28.6875 24.3333 29.9792C24.9999 31.2709 25.736 32.5 26.5416 33.6667C26.7638 34 26.8333 34.3612 26.7499 34.75C26.6666 35.1389 26.4305 35.4028 26.0416 35.5417C25.0971 35.9306 24.118 36.2153 23.1041 36.3959C22.0902 36.5764 21.0555 36.6667 19.9999 36.6667ZM18.3333 33.25V30C17.4166 30 16.6319 29.6737 15.9791 29.0209C15.3263 28.3681 14.9999 27.5834 14.9999 26.6667V25L6.99992 17C6.91659 17.5 6.8402 18 6.77075 18.5C6.70131 19 6.66659 19.5 6.66659 20C6.66659 23.3612 7.77075 26.3056 9.97908 28.8334C12.1874 31.3612 14.9721 32.8334 18.3333 33.25ZM32.4999 36.6667C32.3055 36.6667 32.1388 36.6111 31.9999 36.5C31.861 36.3889 31.7638 36.25 31.7083 36.0834C31.4027 35.1112 30.9721 34.2084 30.4166 33.375C29.861 32.5417 29.2638 31.7223 28.6249 30.9167C28.0416 30.1945 27.5694 29.4028 27.2083 28.5417C26.8471 27.6806 26.6666 26.7778 26.6666 25.8334C26.6666 24.2223 27.236 22.8473 28.3749 21.7084C29.5138 20.5695 30.8888 20 32.4999 20C34.111 20 35.486 20.5695 36.6249 21.7084C37.7638 22.8473 38.3333 24.2223 38.3333 25.8334C38.3333 26.7778 38.1458 27.6737 37.7708 28.5209C37.3958 29.3681 36.9305 30.1667 36.3749 30.9167C35.736 31.7223 35.1388 32.5417 34.5833 33.375C34.0277 34.2084 33.5971 35.1112 33.2916 36.0834C33.236 36.25 33.1388 36.3889 32.9999 36.5C32.861 36.6111 32.6944 36.6667 32.4999 36.6667ZM32.4999 31.9584C32.7777 31.4862 33.0833 31.0487 33.4166 30.6459C33.7499 30.2431 34.0694 29.8334 34.3749 29.4167C34.7638 28.8889 35.1041 28.3264 35.3958 27.7292C35.6874 27.132 35.8333 26.5 35.8333 25.8334C35.8333 24.9167 35.5069 24.132 34.8541 23.4792C34.2013 22.8264 33.4166 22.5 32.4999 22.5C31.5833 22.5 30.7985 22.8264 30.1458 23.4792C29.493 24.132 29.1666 24.9167 29.1666 25.8334C29.1666 26.5 29.3124 27.132 29.6041 27.7292C29.8958 28.3264 30.236 28.8889 30.6249 29.4167C30.9583 29.8334 31.2846 30.2431 31.6041 30.6459C31.9235 31.0487 32.2221 31.4862 32.4999 31.9584ZM32.4999 27.9167C31.9166 27.9167 31.4235 27.7153 31.0208 27.3125C30.618 26.9098 30.4166 26.4167 30.4166 25.8334C30.4166 25.25 30.618 24.757 31.0208 24.3542C31.4235 23.9514 31.9166 23.75 32.4999 23.75C33.0833 23.75 33.5763 23.9514 33.9791 24.3542C34.3819 24.757 34.5833 25.25 34.5833 25.8334C34.5833 26.4167 34.3819 26.9098 33.9791 27.3125C33.5763 27.7153 33.0833 27.9167 32.4999 27.9167Z" fill="white"/>
</g>
</svg>
