<svg width="117" height="122" viewBox="0 0 117 122" fill="none" xmlns="http://www.w3.org/2000/svg">
<path d="M42.8329 34.0096C42.8329 32.6737 42.828 31.4001 42.8329 30.1248C42.8476 26.7147 45.0971 23.907 48.4103 23.1621C49.5653 22.9018 50.7072 22.9657 51.8474 23.2767C52.0824 23.3406 52.3646 23.3488 52.5962 23.2833C57.1328 21.9883 61.5928 25.3166 61.6369 30.0495C61.6483 31.3428 61.6385 32.6377 61.6385 34.0112C61.8245 34.0112 61.9957 34.0112 62.1654 34.0112C63.7494 34.0112 65.3317 34.0096 66.9157 34.0112C67.6221 34.0112 67.8766 34.2699 67.9125 34.9821C68.0789 38.3021 68.2485 41.6205 68.4198 45.0191C68.6155 45.0191 68.8031 45.0191 68.9907 45.0191C72.4344 45.0191 75.8797 45.0191 79.3234 45.0191C80.1798 45.0191 80.3919 45.2172 80.4571 46.0587C80.9677 52.6546 81.4783 59.2505 81.9889 65.8464C82.0591 66.7616 81.8078 67.0399 80.896 67.0399C65.9598 67.0399 51.0236 67.0399 36.0875 67.0399C35.2262 67.0399 34.9619 66.7796 35.0043 65.9266C35.2474 61.035 35.5002 56.1449 35.7449 51.2533C35.9554 47.0328 36.1593 42.8123 36.3681 38.5919C36.4301 37.3493 36.4921 36.1051 36.5606 34.8625C36.5916 34.2863 36.8787 34.0162 37.4757 34.0129C39.0597 34.0063 40.6421 34.0112 42.2261 34.0112C42.4039 34.0112 42.5817 34.0112 42.8296 34.0112L42.8329 34.0096ZM44.4038 35.5976C44.4038 37.2462 44.3989 38.8473 44.4153 40.4483C44.4153 40.5744 44.5409 40.7381 44.6551 40.8183C45.1869 41.1965 45.7317 41.5583 46.2782 41.9136C46.6077 42.1297 46.7594 42.4145 46.7578 42.8156C46.7496 44.8129 46.7578 46.8118 46.7513 48.809C46.7496 49.4475 46.4593 49.734 45.8165 49.7357C44.3484 49.7406 42.8786 49.7422 41.4104 49.7357C40.7726 49.7324 40.4855 49.4442 40.4838 48.8009C40.4789 46.8036 40.4871 44.8047 40.4789 42.8058C40.4773 42.4031 40.6339 42.1231 40.9667 41.9086C41.4887 41.573 41.9928 41.2096 42.5181 40.8822C42.7513 40.7365 42.8427 40.5728 42.8394 40.2912C42.8247 38.8505 42.8329 37.4082 42.8313 35.9676C42.8313 35.8448 42.8084 35.7204 42.797 35.6156H38.0956C37.5997 45.5676 37.107 55.4884 36.6111 65.4355H53.8556C53.9322 64.5056 54.0105 63.5954 54.0807 62.6852C54.5097 57.0863 54.9371 51.4874 55.3662 45.8885C55.4135 45.2745 55.6843 45.0191 56.3123 45.0175C57.5521 45.0126 58.7935 45.0159 60.0333 45.0159C60.2046 45.0159 60.3775 45.0159 60.5814 45.0159C60.4215 41.8284 60.2649 38.7163 60.11 35.6172H56.942C56.942 36.3703 56.9469 37.089 56.9404 37.8077C56.9338 38.379 56.6206 38.7327 56.1443 38.7245C55.6826 38.7163 55.3874 38.3774 55.3727 37.8323C55.3678 37.6522 55.3727 37.4721 55.3727 37.292C55.3727 36.7272 55.3727 36.1624 55.3727 35.5943H44.4038V35.5976ZM56.88 46.6088C56.3971 52.9149 55.9192 59.1703 55.4396 65.4306H74.1081C73.6253 59.1359 73.1457 52.8756 72.6661 46.6088H56.88ZM55.3498 33.9883C55.3498 32.4937 55.4347 31.035 55.3286 29.5894C55.1916 27.728 54.2389 26.307 52.6452 25.3231C52.3613 25.148 52.1313 25.1316 51.8409 25.3117C50.5604 26.0991 49.5522 27.1763 49.3336 28.6595C49.0775 30.4047 49.1085 32.1924 49.0139 33.9883H55.3498ZM74.2419 46.6153C74.6823 52.3632 75.1195 58.0636 75.5681 63.9114C76.1733 62.9978 76.7068 62.2055 77.219 61.3984C77.2859 61.2936 77.2533 61.1152 77.2402 60.9727C76.9025 57.5054 76.5616 54.038 76.2174 50.5706C76.0869 49.2576 75.9482 47.9447 75.8112 46.6137H74.2435L74.2419 46.6153ZM54.3841 24.6241C55.898 25.9485 56.7625 27.5512 56.9045 29.4797C56.9942 30.701 56.9338 31.9354 56.9404 33.1632C56.9404 33.435 56.9404 33.7084 56.9404 33.972H60.0627C60.0627 32.5575 60.0773 31.1823 60.0529 29.8088C60.0463 29.4044 59.9632 28.9952 59.8604 28.6023C59.2258 26.2039 56.7674 24.3916 54.3841 24.6257V24.6241ZM47.5343 33.9982C47.5343 32.6836 47.5294 31.4099 47.5343 30.1379C47.5441 28.0849 48.288 26.3447 49.7659 24.922C49.8589 24.832 49.9437 24.7321 50.0677 24.5979C47.319 24.5062 44.8296 26.5084 44.518 29.1572C44.3419 30.6437 44.4316 32.163 44.4055 33.6675C44.4038 33.7755 44.4316 33.8836 44.4463 33.9982H47.5343ZM80.1929 63.0437C79.7752 57.5774 79.356 52.1111 78.9368 46.6333H77.4246C77.4246 46.7692 77.4164 46.8691 77.4246 46.9657C77.8503 51.2451 78.3218 55.5212 78.6741 59.8088C78.7818 61.1152 79.3315 62.1073 80.1912 63.0453L80.1929 63.0437ZM42.0531 48.1264H45.1836C45.1836 46.504 45.1836 44.9176 45.1803 43.3329C45.1803 43.2413 45.1738 43.1054 45.1167 43.0644C44.6534 42.7337 44.1885 42.3998 43.6991 42.11C43.4903 41.9856 42.0564 43.0366 42.0548 43.2969C42.0482 44.8964 42.0515 46.4975 42.0515 48.1264H42.0531ZM63.8016 44.9962C63.6156 41.8333 63.4313 38.7228 63.2486 35.6123H61.6842C61.8408 38.7523 61.9941 41.8644 62.1491 44.9962H63.8H63.8016ZM64.826 35.6123C65.0104 38.7621 65.1931 41.8825 65.3758 44.9897H66.844C66.6874 41.8464 66.5324 38.7343 66.3758 35.6123H64.8244H64.826ZM79.7491 65.4453C79.17 64.5777 78.6464 63.7902 78.0901 62.9586C77.5159 63.8246 76.9955 64.6104 76.4425 65.4453H79.7491Z" fill="white"/>
<path d="M69.477 53.845C69.477 54.8272 69.4868 55.8095 69.4754 56.7918C69.4493 59.0264 67.7511 60.7274 65.5211 60.7421C64.7723 60.747 64.0121 60.7765 63.2781 60.6553C61.4233 60.3508 60.0954 58.753 60.0774 56.8654C60.0579 54.8027 60.0693 52.7399 60.0742 50.6772C60.0742 50.0944 60.3711 49.7457 60.8458 49.7375C61.3352 49.7293 61.6402 50.0911 61.6419 50.7034C61.6451 52.6679 61.6419 54.6324 61.6435 56.597C61.6451 58.1964 62.6092 59.1656 64.1997 59.1705C64.6402 59.1705 65.0806 59.177 65.5211 59.1705C66.893 59.1476 67.8963 58.1506 67.9044 56.7705C67.9158 54.7405 67.9109 52.7105 67.9044 50.6804C67.9044 50.263 68.0284 49.9372 68.4395 49.785C68.9631 49.5901 69.4656 49.9781 69.4721 50.6051C69.4851 51.6856 69.4754 52.7661 69.4754 53.8466L69.477 53.845Z" fill="white"/>
<path d="M99.6339 4.73996V78.8965C99.2679 79.724 98.9941 80.6134 98.5143 81.3668C97.6931 82.6607 96.3583 83.2504 94.9251 83.6333H21.2082C17.5451 82.707 16.4471 80.005 16.4656 76.9356C16.5425 62.1105 16.4994 47.2854 16.4994 32.4603C16.4994 23.564 16.4963 14.6707 16.4994 5.77442C16.4994 2.99529 18.0557 0.941817 20.6946 0.166748C20.8176 0.129693 20.9283 0.0555826 21.0452 0C45.7272 0 70.4061 0 95.0881 0C95.8109 0.333496 96.5828 0.595969 97.2503 1.01902C98.5943 1.87437 99.2525 3.22997 99.6339 4.73688V4.73996ZM19.2644 41.8198C19.2644 53.7422 19.2644 65.6616 19.2644 77.5841C19.2644 79.7734 20.3286 80.848 22.4969 80.848C46.1978 80.848 69.8986 80.848 93.5995 80.848C95.817 80.848 96.8658 79.7827 96.8658 77.5347C96.8658 53.7206 96.8658 29.9035 96.8658 6.08939C96.8658 3.84447 95.817 2.78531 93.5933 2.78531C69.9201 2.78531 46.2439 2.78531 22.5707 2.78531C20.2917 2.78531 19.2644 3.82594 19.2644 6.13879C19.2644 18.0335 19.2644 29.9282 19.2644 41.8198Z" fill="white"/>
<path d="M57.9984 78.0039C47.1302 78.0039 36.262 78.0039 25.3968 78.0039C23.0155 78.0039 22.0015 76.9776 22.0015 74.5664C22.0015 54.5103 22.0015 34.4542 22.0015 14.3981C22.0015 12.0488 23.0339 11.0039 25.3599 11.0039C47.121 11.0039 68.885 11.0039 90.646 11.0039C92.966 11.0039 94.0015 12.0518 94.0015 14.4012C94.0015 34.4851 94.0015 54.5691 94.0015 74.6499C94.0015 76.9405 92.9506 78.0008 90.6829 78.0008C79.7871 78.0008 68.8943 78.0008 57.9984 78.0008V78.0039ZM24.813 75.1692H91.1746V13.8602H24.813V75.1692Z" fill="white"/>
<path d="M87.1311 8.35403C85.8086 8.35403 84.486 8.36638 83.1604 8.35094C82.2193 8.34168 81.6011 7.75806 81.6226 6.94285C81.6411 6.16469 82.25 5.58416 83.142 5.57799C85.8147 5.56255 88.4874 5.56255 91.1632 5.57799C92.1228 5.58416 92.698 6.15543 92.6826 7.00152C92.6672 7.826 92.1198 8.33859 91.1848 8.35094C89.8346 8.36638 88.4844 8.35403 87.1342 8.35403H87.1311Z" fill="white"/>
<path d="M32.4311 8.35562C31.0286 8.35562 30.3704 7.92331 30.3581 6.98767C30.3458 6.03041 31.0347 5.57031 32.4772 5.57031C32.5848 5.57031 32.6925 5.57031 32.8001 5.57031C33.8612 5.58575 34.5225 6.1354 34.5071 6.99385C34.4917 7.83376 33.8705 8.34018 32.834 8.35562C32.6986 8.35562 32.5633 8.35562 32.428 8.35562H32.4311Z" fill="white"/>
<path d="M25.4644 8.3544C25.3291 8.3544 25.1938 8.3544 25.0585 8.3544C24.025 8.33587 23.4376 7.82327 23.4499 6.94939C23.4591 6.11565 24.0466 5.59688 25.0185 5.57218C25.3968 5.56291 25.7751 5.55365 26.1503 5.57835C27.033 5.63393 27.5866 6.21755 27.5559 7.03276C27.5251 7.8171 26.9838 8.31425 26.1103 8.35131C25.895 8.36057 25.6797 8.35131 25.4614 8.35131L25.4644 8.3544Z" fill="white"/>
<path d="M39.3664 8.34935C39.1234 8.34935 38.8805 8.36479 38.6375 8.34935C37.8471 8.29377 37.3027 7.74412 37.2904 7.00302C37.275 6.27427 37.8101 5.66595 38.5852 5.59184C39.0404 5.5486 39.5017 5.56096 39.96 5.57948C40.8489 5.61963 41.4394 6.19707 41.4302 6.98758C41.424 7.78117 40.8304 8.32465 39.9323 8.35553C39.7447 8.3617 39.554 8.35553 39.3664 8.35553C39.3664 8.35553 39.3664 8.35553 39.3664 8.35244V8.34935Z" fill="white"/>
<path d="M108.925 19.6067C105.807 19.6005 102.688 19.6005 99.5692 19.6036H98.5757C98.5911 19.6993 98.6034 19.7981 98.6034 19.9062C98.6034 21.0951 98.585 22.2777 98.505 23.4542C98.8187 23.4542 99.1324 23.4542 99.4461 23.4542C102.463 23.4542 105.484 23.4419 108.501 23.4604C110.946 23.4728 112.228 24.711 112.232 27.1474C112.244 46.7526 112.238 66.3579 112.238 85.9631C112.238 86.1885 112.21 86.4139 112.192 86.7165L94.1622 86.7227C92.0954 86.7598 92.1815 86.7721 91.0865 86.7227C90.902 86.7135 91.0866 86.7227 90.2807 86.7104H25.7692C25.3663 86.7165 25.2894 86.7227 25.2925 86.7227C25.2864 86.7227 25.2802 86.7227 25.271 86.7227C24.9634 86.7135 25.271 86.7227 24.2591 86.769C23.2072 86.8123 22.1492 86.8061 21.0881 86.8215C20.8974 86.8215 20.7252 86.7968 20.5683 86.7474H3.24018V85.4659C3.24018 66.1695 3.24018 46.8731 3.24018 27.5735C3.24018 24.6029 4.39047 23.4542 7.35539 23.4542C10.3818 23.4542 13.4082 23.4542 16.4624 23.4542H16.5392C16.5331 23.4172 16.5239 23.3801 16.5208 23.3462C16.49 22.9231 16.5269 22.4908 16.5423 22.0708C16.5731 21.2433 16.5239 20.4312 16.5054 19.6067H16.4593C13.3406 19.6067 10.2619 19.6067 7.18315 19.6098C2.80037 19.6159 0.00768909 22.4229 0.00461346 26.8386C-0.00153782 50.1524 -0.00153782 73.4663 0.00461346 96.7801C0.00461346 101.251 2.81575 104.055 7.26927 104.058C18.5907 104.058 29.909 104.058 41.2305 104.058H42.6914C41.4704 108.771 40.2893 113.325 39.1021 117.898C37.3859 117.898 35.8143 117.886 34.2426 117.902C32.8555 117.917 32.1819 118.504 32.1727 119.662C32.1635 120.832 32.8278 121.446 34.2088 121.446C50.0945 121.453 65.9832 121.453 81.8689 121.446C83.2529 121.446 83.9265 120.838 83.9265 119.68C83.9265 118.516 83.256 117.917 81.8719 117.905C80.2665 117.886 78.6579 117.902 76.9878 117.902C75.7945 113.276 74.6165 108.724 73.4139 104.061H74.9641C86.2855 104.061 97.6038 104.061 108.925 104.061C113.228 104.061 116.088 101.224 116.088 96.916C116.098 73.5249 116.098 50.1339 116.088 26.7429C116.088 22.429 113.253 19.6221 108.925 19.6098V19.6067ZM42.5807 118.337C43.1158 116.262 43.6264 114.27 44.14 112.278C44.7367 109.972 45.361 107.671 45.9177 105.352C46.0654 104.741 46.3206 104.562 46.9235 104.562C54.2127 104.58 61.4989 104.565 68.7882 104.599C69.0896 104.599 69.5971 104.932 69.6647 105.198C70.7658 109.512 71.8115 113.841 72.9095 118.337H42.5837H42.5807ZM112.232 97.3761C112.188 99.6611 110.881 100.946 108.618 100.946C74.7026 100.949 40.7906 100.952 6.87559 100.946C4.53195 100.946 3.29247 99.7445 3.24941 97.4255C3.20943 95.1991 3.24018 92.9696 3.24018 90.5981H112.102C112.149 90.8575 112.232 91.1107 112.235 91.367C112.247 93.371 112.268 95.3751 112.235 97.3761H112.232Z" fill="white"/>
<path d="M60.7483 95.8982C60.7483 97.5224 59.3889 98.9028 57.7711 98.9182C56.1071 98.9336 54.7047 97.5163 54.7323 95.8457C54.76 94.2369 56.1656 92.8597 57.768 92.8751C59.3735 92.8906 60.7483 94.2863 60.7483 95.8982Z" fill="white"/>
</svg>
