<svg width="117" height="121" viewBox="0 0 117 121" fill="none" xmlns="http://www.w3.org/2000/svg">
<path d="M108.925 19.013C105.198 19.0038 100.228 19.011 96.5 19.0141C96.6845 19.2622 96.4877 19.6549 96.5 19.998C96.5338 20.9693 96.7399 21.9666 96.5 22.8336L98.4896 22.8275C101.827 22.8275 105.164 22.8153 108.501 22.8336C110.946 22.8459 112.228 24.0745 112.232 26.4919C112.244 45.9446 112.238 65.3973 112.238 84.8499C112.238 85.0736 112.21 85.2973 112.192 85.5975L94.1622 85.6037C92.0953 85.6404 92.1815 85.6527 91.0865 85.6037C90.902 85.5945 91.0865 85.6037 90.2807 85.5914H25.7692C25.3663 85.5975 25.2894 85.6037 25.2925 85.6037C25.2864 85.6037 25.2802 85.6037 25.271 85.6037C24.9634 85.5945 25.271 85.6037 24.2591 85.6496C23.2072 85.6925 22.1492 85.6864 21.0881 85.7017C20.8974 85.7017 20.7252 85.6772 20.5683 85.6282H3.24018V84.3567C3.24018 65.2104 3.24018 46.0641 3.24018 26.9147C3.24018 23.9673 4.39047 22.8275 7.35539 22.8275C11.0185 22.8275 16.7846 23 20.5 23C20.1432 21.7499 20.5062 20.3083 20.5 19C16.8677 19 10.757 19.0038 7.18623 19.0099C2.80037 19.0222 0.00768909 21.8072 0.00461346 26.1886C-0.00153782 49.321 -0.00153782 72.4534 0.00461346 95.5858C0.00461346 100.022 2.81575 102.804 7.26927 102.807C18.5907 102.807 29.909 102.807 41.2305 102.807H42.6914C41.4704 107.483 40.2893 112.002 39.1021 116.54C37.3859 116.54 35.8143 116.528 34.2426 116.543C32.8555 116.558 32.1819 117.14 32.1727 118.289C32.1635 119.45 32.8278 120.06 34.2088 120.06C50.0944 120.066 65.9832 120.066 81.8689 120.06C83.2529 120.06 83.9265 119.457 83.9265 118.308C83.9265 117.153 83.256 116.558 81.8719 116.546C80.2665 116.528 78.6579 116.543 76.9878 116.543C75.7945 111.953 74.6165 107.437 73.4139 102.81H74.9641C86.2855 102.81 97.6038 102.81 108.925 102.81C113.228 102.81 116.088 99.9948 116.088 95.7206C116.098 72.5116 116.098 49.3026 116.088 26.0936C116.088 21.8134 113.253 19.0283 108.925 19.016V19.013ZM42.5807 116.975C43.1158 114.916 43.6264 112.94 44.14 110.964C44.7367 108.675 45.361 106.392 45.9177 104.091C46.0654 103.485 46.3206 103.307 46.9235 103.307C54.2127 103.325 61.4989 103.31 68.7882 103.344C69.0896 103.344 69.5971 103.675 69.6647 103.938C70.7658 108.218 71.8115 112.514 72.9095 116.975H42.5837H42.5807ZM112.232 96.1772C112.188 98.4444 110.881 99.719 108.618 99.719C74.7026 99.7221 40.7906 99.7251 6.87559 99.719C4.53195 99.719 3.29247 98.5272 3.24941 96.2262C3.20943 94.0171 3.24018 91.805 3.24018 89.4519H112.102C112.149 89.7093 112.232 89.9605 112.235 90.2148C112.244 92.2033 112.268 94.1918 112.235 96.1772H112.232Z" fill="white"/>
<path d="M60.7485 94.7096C60.7485 96.3213 59.3891 97.6908 57.7713 97.7061C56.1074 97.7215 54.7049 96.3151 54.7326 94.6576C54.7603 93.0613 56.1658 91.6948 57.7682 91.7101C59.3737 91.7254 60.7485 93.1103 60.7485 94.7096Z" fill="white"/>
<path d="M19.8615 52.1432V21.927C19.8615 21.5047 19.7673 21.0655 19.8615 20.6649C19.9847 20.1098 20.103 19.4365 20.4628 19.0649C26.5637 12.8822 32.6945 6.72841 38.855 0.603603C39.2151 0.25485 39.6875 0.0453079 40.1879 0.0123587C50.9909 -0.00855604 61.7932 -0.00292514 72.5946 0.0292514C73.3962 0.0292514 74.1955 0.270576 75.0092 0.314014C75.6972 0.313777 76.3842 0.260528 77.0641 0.15474C88.8547 -1.26425 99.1169 8.82069 97.9023 20.5997C97.4931 24.8032 95.7063 28.7539 92.8195 31.8382C92.4808 32.2311 92.2851 32.7269 92.2642 33.2451C92.2352 44.7354 92.2263 56.2256 92.2376 67.7159C92.2376 72.0114 89.7409 75.3996 85.7616 76.4445C84.8834 76.6558 83.982 76.7555 83.0789 76.7414C74.8112 76.7639 66.5427 76.7679 58.2734 76.7534H57.4645C57.4645 77.7187 57.4645 78.6165 57.4645 79.5118C57.4355 82.1132 55.6077 83.9835 53.0216 83.9883C41.4958 84.0044 29.97 84.002 18.4441 83.9811C15.8991 83.9811 14.0181 82.1277 14.0133 79.6011C13.9956 71.9093 13.9956 64.2183 14.0133 56.5281C14.0133 54.0448 15.8894 52.1842 18.3596 52.1456C18.8111 52.1263 19.2627 52.1432 19.8615 52.1432ZM74.8499 37.1232C73.2441 36.9446 71.9233 36.0831 70.1751 36.1386C64.1168 36.3365 58.0464 36.2182 51.9809 36.2134C50.7422 36.2134 50.2279 35.6897 50.2231 34.4445C50.2231 31.2783 50.2231 28.1121 50.2231 24.946C50.2231 23.7032 50.7422 23.1915 51.9881 23.1867C54.6129 23.1867 57.2375 23.1867 59.8622 23.1867H60.7991C60.6132 21.6857 60.4418 20.2908 60.2631 18.8429H48.0475C46.577 18.8429 45.8743 18.3723 45.8888 17.3949C45.9033 16.4176 46.577 15.947 48.062 15.947C51.9833 15.947 55.9071 15.947 59.8309 15.9325C60.111 15.9325 60.5915 15.8022 60.6422 15.6333C61.0309 14.3205 61.34 12.9787 61.6853 11.6032H48.0064C47.706 11.6238 47.4042 11.6141 47.1058 11.5742C46.3307 11.4077 45.8767 10.913 45.8985 10.1118C45.9178 9.35402 46.3814 8.88826 47.1058 8.74105C47.405 8.70028 47.7075 8.68977 48.0088 8.70968C52.5652 8.70968 57.1216 8.66866 61.6781 8.73623C62.8612 8.75312 63.7063 8.55041 64.3341 7.44997C64.776 6.68256 65.4569 6.03098 66.1089 5.41078C66.9951 4.57097 67.9561 3.81321 68.9461 2.96617H41.528V3.98214C41.528 8.32598 41.528 12.6698 41.528 17.0136C41.528 19.9602 39.7411 21.7388 36.7905 21.7412C32.4441 21.7412 28.0978 21.7412 23.7515 21.7412H22.7518V52.148H23.8722C33.5307 52.148 43.1892 52.148 52.8478 52.148C54.6273 52.148 56.0351 52.831 56.8826 54.4044C57.1868 54.9691 57.5321 55.056 58.0899 55.0536C62.0741 55.0391 66.0582 55.0536 70.0399 55.0536C71.508 55.0536 71.9716 55.5362 71.9716 57.0131C71.9716 58.6123 71.9716 60.2115 71.9716 61.8106C71.9716 63.2755 71.4887 63.7412 70.0085 63.7412H57.537V73.8069H77.0375C75.2289 71.717 74.8233 69.3569 74.8354 66.8085C74.8837 57.3075 74.8547 47.8066 74.8547 38.3081L74.8499 37.1232ZM79.2396 2.9179C77.1371 2.91215 75.0541 3.32228 73.1109 4.12467C71.1676 4.92705 69.4024 6.10583 67.917 7.59307C66.4316 9.08032 65.2553 10.8466 64.456 12.7902C63.6567 14.7339 63.2501 16.8163 63.2596 18.9177C63.2596 27.6633 70.4625 34.7848 79.2928 34.7654C87.9878 34.751 95.1327 27.5836 95.1327 18.9008C95.1327 10.0756 87.9951 2.89618 79.2396 2.9179ZM54.567 60.8791C54.1686 61.1446 53.8981 61.3159 53.6349 61.5017C48.1103 65.4434 42.5872 69.385 37.0657 73.3266C35.9284 74.1399 35.53 74.1351 34.4096 73.3266L17.8429 61.5017C17.5821 61.3159 17.3092 61.1446 16.9084 60.8767V61.8806C16.9084 67.6097 16.9084 73.3395 16.9084 79.0701C16.9084 80.6725 17.3431 81.1069 18.944 81.1069H52.5266C54.1323 81.1069 54.5718 80.6701 54.5718 79.075C54.5718 73.3459 54.5718 67.6161 54.5718 61.8855L54.567 60.8791ZM77.7474 37.753C77.7474 48.031 77.7305 58.2487 77.7667 68.4664C77.7773 69.1952 77.9444 69.9133 78.2569 70.572C78.5693 71.2307 79.0198 71.8146 79.5777 72.2841C81.4104 73.9179 83.5232 74.3474 85.7881 73.3749C88.1303 72.3734 89.3376 70.4959 89.3376 67.9644C89.3586 57.1129 89.3586 46.2605 89.3376 35.4074C89.3376 35.2433 89.3135 35.0768 89.2966 34.8861C84.5277 37.1497 84.5373 37.449 77.7643 37.753H77.7474ZM35.7884 55.0391H19.0381C18.7363 55.0391 18.362 54.9426 18.1471 55.0825C17.7004 55.3769 17.1813 55.7293 16.9809 56.1854C16.7394 56.7115 16.8408 57.2786 17.4638 57.725C23.3732 61.908 29.2649 66.1118 35.1389 70.3366C35.5783 70.6528 35.8633 70.6672 36.3196 70.3366C42.2234 66.0966 48.1513 61.8903 54.043 57.6381C54.1836 57.5236 54.3 57.3823 54.3854 57.2224C54.4708 57.0624 54.5235 56.8871 54.5404 56.7066C54.6008 55.5579 53.9971 55.0343 52.7101 55.0343C47.0728 55.0343 41.4322 55.0359 35.7884 55.0391ZM24.9105 18.8405H25.6953C29.3719 18.8405 33.0486 18.8405 36.7253 18.8405C38.1475 18.8405 38.6328 18.3578 38.6352 16.9533C38.6352 13.253 38.6352 9.54788 38.6352 5.83792C38.6352 5.61591 38.6014 5.39389 38.5821 5.18152L24.9105 18.8405ZM53.1882 26.0802V33.2572H67.1061C64.9057 31.3819 63.1456 29.0452 61.9509 26.4132C61.8887 26.3208 61.806 26.244 61.7093 26.1888C61.6125 26.1335 61.5044 26.1013 61.3931 26.0947C58.6718 26.0633 55.9675 26.0802 53.1882 26.0802ZM69.0209 57.9977H57.5442V60.7826H69.0209V57.9977Z" fill="white"/>
<path d="M25.5913 36.1989C25.5913 32.9716 25.5913 29.7443 25.5913 26.517C25.5913 25.1004 26.0742 24.625 27.4965 24.6226H45.4227C46.84 24.6226 47.3206 25.1052 47.3206 26.5266C47.3206 32.9828 47.3206 39.4383 47.3206 45.8929C47.3206 47.307 46.8376 47.7873 45.413 47.7873C39.4376 47.7873 33.4614 47.7873 27.4844 47.7873C26.0718 47.7873 25.5937 47.3046 25.5913 45.8832C25.5913 42.6607 25.5913 39.4326 25.5913 36.1989ZM44.3699 44.8865V27.5908H28.5661V44.8865H44.3699Z" fill="white"/>
<path d="M61.0067 43.4555C58.5027 43.4555 55.9988 43.4555 53.4924 43.4555C52.3479 43.4555 51.6863 42.9173 51.6814 42.0075C51.6766 41.0977 52.3382 40.5596 53.4803 40.5596C58.5494 40.5596 63.6202 40.5596 68.6925 40.5596C69.837 40.5596 70.4986 41.0953 70.5035 42.0075C70.5083 42.9197 69.8418 43.4555 68.7046 43.4555C66.1378 43.4603 63.5735 43.4555 61.0067 43.4555Z" fill="white"/>
<path d="M61.1829 47.799C63.6869 47.799 66.1933 47.799 68.6973 47.799C69.8394 47.799 70.501 48.342 70.501 49.247C70.501 50.1519 69.8345 50.6949 68.6948 50.6949C63.6241 50.6949 58.5534 50.6949 53.4827 50.6949C52.3406 50.6949 51.679 50.1495 51.679 49.247C51.679 48.3444 52.3406 47.799 53.4851 47.799C56.0519 47.7942 58.6162 47.799 61.1829 47.799Z" fill="white"/>
<path d="M75.0404 16.4105C73.3502 13.447 73.5917 10.8601 75.7238 9.02599C76.6728 8.21707 77.8747 7.76474 79.1219 7.74712C80.369 7.72949 81.5832 8.14768 82.5548 8.92946C84.7714 10.7346 85.0563 13.2612 83.3709 16.4467C85.5875 17.6823 87.1957 19.4536 87.9273 21.9175C88.1543 22.7285 88.2975 23.5606 88.3547 24.4008C88.432 25.366 87.8186 26.0442 86.9735 26.0755C86.1284 26.1069 85.5392 25.547 85.4982 24.589C85.4635 23.0367 84.8633 21.5504 83.8101 20.409C82.757 19.2675 81.3232 18.5494 79.7779 18.3894C76.6244 18.0708 73.5337 20.3899 73.0387 23.532C72.9735 23.9495 72.9494 24.3718 72.8914 24.7893C72.7779 25.5953 72.2853 26.02 71.4958 26.0683C71.3124 26.078 71.129 26.051 70.9563 25.9888C70.7835 25.9266 70.625 25.8305 70.49 25.7062C70.355 25.5818 70.2462 25.4317 70.1702 25.2647C70.0941 25.0977 70.0522 24.9172 70.047 24.7338C70.024 24.0716 70.0848 23.4091 70.2281 22.7622C70.4736 21.546 70.968 20.3937 71.6802 19.3775C72.3924 18.3613 73.307 17.5032 74.3668 16.857C74.6082 16.7122 74.8183 16.565 75.0404 16.4105ZM81.5937 13.0561C81.598 12.5826 81.4617 12.1184 81.2019 11.7223C80.9422 11.3262 80.5708 11.016 80.1346 10.8309C79.6985 10.6458 79.2172 10.5942 78.7517 10.6826C78.2861 10.7709 77.8573 10.9953 77.5194 11.3272C77.1814 11.6592 76.9496 12.0839 76.8533 12.5476C76.7569 13.0113 76.8003 13.4931 76.978 13.9321C77.1557 14.3711 77.4596 14.7476 77.8514 15.0139C78.2432 15.2803 78.7053 15.4245 79.1791 15.4283C79.4942 15.4367 79.8078 15.3818 80.1012 15.2666C80.3947 15.1515 80.6619 14.9786 80.8872 14.7583C81.1124 14.5379 81.2911 14.2745 81.4124 13.9837C81.5338 13.693 81.5955 13.3808 81.5937 13.0658V13.0561Z" fill="white"/>
</svg>
