<svg width="117" height="122" viewBox="0 0 117 122" fill="none" xmlns="http://www.w3.org/2000/svg">
<path d="M99.6339 4.73996V78.8965C99.2679 79.724 98.9941 80.6134 98.5143 81.3668C97.6931 82.6607 96.3583 83.2504 94.9251 83.6333H21.2082C17.5451 82.707 16.4471 80.005 16.4656 76.9356C16.5425 62.1105 16.4994 47.2854 16.4994 32.4603C16.4994 23.564 16.4963 14.6707 16.4994 5.77442C16.4994 2.99529 18.0557 0.941817 20.6946 0.166748C20.8176 0.129693 20.9283 0.0555826 21.0452 0C45.7272 0 70.4061 0 95.0881 0C95.8109 0.333496 96.5828 0.595969 97.2503 1.01902C98.5943 1.87437 99.2525 3.22997 99.6339 4.73688V4.73996ZM19.2644 41.8198C19.2644 53.7422 19.2644 65.6616 19.2644 77.5841C19.2644 79.7734 20.3286 80.848 22.4969 80.848C46.1978 80.848 69.8986 80.848 93.5995 80.848C95.817 80.848 96.8658 79.7827 96.8658 77.5347C96.8658 53.7206 96.8658 29.9035 96.8658 6.08939C96.8658 3.84447 95.817 2.78531 93.5933 2.78531C69.9201 2.78531 46.2439 2.78531 22.5707 2.78531C20.2917 2.78531 19.2644 3.82594 19.2644 6.13879C19.2644 18.0335 19.2644 29.9282 19.2644 41.8198Z" fill="white"/>
<path d="M57.9984 78.0039C47.1302 78.0039 36.262 78.0039 25.3968 78.0039C23.0155 78.0039 22.0015 76.9776 22.0015 74.5664C22.0015 54.5103 22.0015 34.4542 22.0015 14.3981C22.0015 12.0488 23.0339 11.0039 25.3599 11.0039C47.121 11.0039 68.885 11.0039 90.646 11.0039C92.966 11.0039 94.0015 12.0518 94.0015 14.4012C94.0015 34.4851 94.0015 54.5691 94.0015 74.6499C94.0015 76.9405 92.9506 78.0008 90.6829 78.0008C79.7871 78.0008 68.8943 78.0008 57.9984 78.0008V78.0039ZM24.813 75.1692H91.1746V13.8602H24.813V75.1692Z" fill="white"/>
<path d="M87.1311 8.35403C85.8086 8.35403 84.486 8.36638 83.1604 8.35094C82.2193 8.34168 81.6011 7.75806 81.6226 6.94285C81.6411 6.16469 82.25 5.58416 83.142 5.57799C85.8147 5.56255 88.4874 5.56255 91.1632 5.57799C92.1228 5.58416 92.698 6.15543 92.6826 7.00152C92.6672 7.826 92.1198 8.33859 91.1848 8.35094C89.8346 8.36638 88.4844 8.35403 87.1342 8.35403H87.1311Z" fill="white"/>
<path d="M32.4311 8.35562C31.0286 8.35562 30.3704 7.92331 30.3581 6.98767C30.3458 6.03041 31.0347 5.57031 32.4772 5.57031C32.5848 5.57031 32.6925 5.57031 32.8001 5.57031C33.8612 5.58575 34.5225 6.1354 34.5071 6.99385C34.4917 7.83376 33.8705 8.34018 32.834 8.35562C32.6986 8.35562 32.5633 8.35562 32.428 8.35562H32.4311Z" fill="white"/>
<path d="M25.4644 8.3544C25.3291 8.3544 25.1938 8.3544 25.0585 8.3544C24.025 8.33587 23.4376 7.82327 23.4499 6.94939C23.4591 6.11565 24.0466 5.59688 25.0185 5.57218C25.3968 5.56291 25.7751 5.55365 26.1503 5.57835C27.033 5.63393 27.5866 6.21755 27.5559 7.03276C27.5251 7.8171 26.9838 8.31425 26.1103 8.35131C25.895 8.36057 25.6797 8.35131 25.4614 8.35131L25.4644 8.3544Z" fill="white"/>
<path d="M39.3664 8.34935C39.1234 8.34935 38.8805 8.36479 38.6375 8.34935C37.8471 8.29377 37.3027 7.74412 37.2904 7.00302C37.275 6.27427 37.8101 5.66595 38.5852 5.59184C39.0404 5.5486 39.5017 5.56096 39.96 5.57948C40.8489 5.61963 41.4394 6.19707 41.4302 6.98758C41.424 7.78117 40.8304 8.32465 39.9323 8.35553C39.7447 8.3617 39.554 8.35553 39.3664 8.35553C39.3664 8.35553 39.3664 8.35553 39.3664 8.35244V8.34935Z" fill="white"/>
<path d="M108.925 19.6067C105.807 19.6005 102.688 19.6005 99.5692 19.6036H98.5757C98.5911 19.6993 98.6034 19.7981 98.6034 19.9062C98.6034 21.0951 98.585 22.2777 98.505 23.4542C98.8187 23.4542 99.1324 23.4542 99.4461 23.4542C102.463 23.4542 105.484 23.4419 108.501 23.4604C110.946 23.4728 112.228 24.711 112.232 27.1474C112.244 46.7526 112.238 66.3579 112.238 85.9631C112.238 86.1885 112.21 86.4139 112.192 86.7165L94.1622 86.7227C92.0954 86.7598 92.1815 86.7721 91.0865 86.7227C90.902 86.7135 91.0866 86.7227 90.2807 86.7104H25.7692C25.3663 86.7165 25.2894 86.7227 25.2925 86.7227C25.2864 86.7227 25.2802 86.7227 25.271 86.7227C24.9634 86.7135 25.271 86.7227 24.2591 86.769C23.2072 86.8123 22.1492 86.8061 21.0881 86.8215C20.8974 86.8215 20.7252 86.7968 20.5683 86.7474H3.24018V85.4659C3.24018 66.1695 3.24018 46.8731 3.24018 27.5735C3.24018 24.6029 4.39047 23.4542 7.35539 23.4542C10.3818 23.4542 13.4082 23.4542 16.4624 23.4542H16.5392C16.5331 23.4172 16.5239 23.3801 16.5208 23.3462C16.49 22.9231 16.5269 22.4908 16.5423 22.0708C16.5731 21.2433 16.5239 20.4312 16.5054 19.6067H16.4593C13.3406 19.6067 10.2619 19.6067 7.18315 19.6098C2.80037 19.6159 0.00768909 22.4229 0.00461346 26.8386C-0.00153782 50.1524 -0.00153782 73.4663 0.00461346 96.7801C0.00461346 101.251 2.81575 104.055 7.26927 104.058C18.5907 104.058 29.909 104.058 41.2305 104.058H42.6914C41.4704 108.771 40.2893 113.325 39.1021 117.898C37.3859 117.898 35.8143 117.886 34.2426 117.902C32.8555 117.917 32.1819 118.504 32.1727 119.662C32.1635 120.832 32.8278 121.446 34.2088 121.446C50.0945 121.453 65.9832 121.453 81.8689 121.446C83.2529 121.446 83.9265 120.838 83.9265 119.68C83.9265 118.516 83.256 117.917 81.8719 117.905C80.2665 117.886 78.6579 117.902 76.9878 117.902C75.7945 113.276 74.6165 108.724 73.4139 104.061H74.9641C86.2855 104.061 97.6038 104.061 108.925 104.061C113.228 104.061 116.088 101.224 116.088 96.916C116.098 73.5249 116.098 50.1339 116.088 26.7429C116.088 22.429 113.253 19.6221 108.925 19.6098V19.6067ZM42.5807 118.337C43.1158 116.262 43.6264 114.27 44.14 112.278C44.7367 109.972 45.361 107.671 45.9177 105.352C46.0654 104.741 46.3206 104.562 46.9235 104.562C54.2127 104.58 61.4989 104.565 68.7882 104.599C69.0896 104.599 69.5971 104.932 69.6647 105.198C70.7658 109.512 71.8115 113.841 72.9095 118.337H42.5837H42.5807ZM112.232 97.3761C112.188 99.6611 110.881 100.946 108.618 100.946C74.7026 100.949 40.7906 100.952 6.87559 100.946C4.53195 100.946 3.29247 99.7445 3.24941 97.4255C3.20943 95.1991 3.24018 92.9696 3.24018 90.5981H112.102C112.149 90.8575 112.232 91.1107 112.235 91.367C112.247 93.371 112.268 95.3751 112.235 97.3761H112.232Z" fill="white"/>
<path d="M60.7483 95.8982C60.7483 97.5224 59.3889 98.9028 57.7711 98.9182C56.1071 98.9336 54.7047 97.5163 54.7323 95.8457C54.76 94.2369 56.1656 92.8597 57.768 92.8751C59.3735 92.8906 60.7483 94.2863 60.7483 95.8982Z" fill="white"/>
<path d="M46.0027 48.9525V48.3271C46.0027 44.9406 46.0027 41.5559 46.0027 38.1693C46.0027 37.271 46.1311 37.1024 47.0017 36.8522C48.5256 36.4144 50.0494 35.9786 51.5752 35.5408C51.7112 35.501 51.8453 35.4555 52.0039 35.4044C52.0039 33.9944 52.0039 32.5977 52.0039 31.201C52.0039 30.3236 52.2796 30.0469 53.1577 30.0469C56.3886 30.0469 59.6196 30.0469 62.8505 30.0469C63.7286 30.0469 64.0043 30.3236 64.0043 31.1991C64.0062 32.5958 64.0043 33.9906 64.0043 35.4138C65.6528 35.8876 67.2787 36.3576 68.9045 36.82C69.8978 37.1024 70.0035 37.2369 70.0035 38.2773C70.0035 41.6279 70.0035 44.9785 70.0035 48.3271C70.0035 48.5204 70.0035 48.7137 70.0035 48.9677C70.2358 48.9677 70.4265 48.9677 70.6173 48.9677C73.1703 48.9677 75.7233 48.9677 78.2764 48.9677C79.1544 48.9677 79.4755 49.2557 79.4188 50.118C79.3395 51.3138 79.2205 52.5077 79.0714 53.696C78.9769 54.454 78.6842 54.6776 77.9232 54.6625C75.9971 54.6265 76.0689 54.7383 75.4835 56.3662C75.2475 57.02 74.9453 57.6511 74.6526 58.284C74.3014 59.0421 74.3467 59.3832 74.9227 59.9688C75.1606 60.2114 75.4061 60.4464 75.6402 60.6927C75.9839 61.0509 76.0311 61.4583 75.7573 61.8658C74.2089 64.1627 72.2903 66.09 70.0017 67.644C69.5957 67.9188 69.1897 67.879 68.8328 67.5322C68.5495 67.2593 68.2795 66.9731 67.9981 66.6983C67.5808 66.2909 67.1182 66.2264 66.5781 66.4652C65.6169 66.8878 64.6444 67.2896 63.6682 67.6762C63.1224 67.8922 62.8278 68.2542 62.8278 68.8474C62.8278 69.2056 62.8316 69.5637 62.8278 69.9219C62.8165 70.5549 62.6012 70.8297 61.9705 70.9509C59.8348 71.3622 57.6859 71.4513 55.5256 71.1765C55.0309 71.1139 54.5361 71.0438 54.0452 70.9491C53.4145 70.8259 53.2011 70.5549 53.1898 69.9181C53.1841 69.5599 53.1898 69.2018 53.1898 68.8436C53.1898 68.2751 52.9159 67.9036 52.3948 67.6933C51.4053 67.2896 50.4139 66.8916 49.4338 66.4633C48.8919 66.2264 48.4311 66.2909 48.0138 66.7002C47.7457 66.9636 47.4889 67.2365 47.215 67.4962C46.8053 67.8847 46.4276 67.9245 45.965 67.608C43.7084 66.071 41.8144 64.1683 40.2848 61.9037C39.9733 61.4432 40.0186 61.0661 40.4132 60.651C40.6719 60.3781 40.9458 60.1204 41.2063 59.8494C41.5935 59.4476 41.6784 58.9985 41.4518 58.4716C41.0232 57.471 40.6153 56.4609 40.2036 55.4508C39.9903 54.9297 39.6145 54.6606 39.0499 54.6625C38.6741 54.6625 38.3002 54.6625 37.9244 54.6625C37.4089 54.6606 37.0482 54.4256 36.9878 53.8987C36.8348 52.5665 36.6894 51.2342 36.5931 49.8963C36.5497 49.2728 36.9387 48.9658 37.6317 48.9639C40.3094 48.9601 42.9871 48.9639 45.6647 48.962C45.7535 48.962 45.8403 48.9525 46.0065 48.9449L46.0027 48.9525ZM73.9388 61.4621C73.8388 61.3465 73.7613 61.2499 73.6764 61.1608C72.5981 60.0294 72.4471 58.9473 73.1042 57.5298C73.5007 56.6713 73.8425 55.7863 74.1806 54.9032C74.5941 53.821 75.3532 53.171 76.4843 52.9739C76.794 52.919 77.1169 52.936 77.4814 52.919C77.5569 52.1761 77.6287 51.4597 77.7042 50.7263H71.5558C71.0251 57.8974 65.2015 63.4179 58.056 63.4425C50.7632 63.4691 44.9207 57.7894 44.4524 50.7358H38.3229C38.3512 51.1357 38.3701 51.492 38.4078 51.8482C38.4456 52.2007 38.5041 52.5494 38.5551 52.919C38.71 52.9284 38.8308 52.9417 38.9517 52.9436C40.468 52.9796 41.3669 53.6505 41.8899 55.0642C42.2185 55.9511 42.5962 56.821 42.9833 57.6833C43.4025 58.6119 43.4327 59.5253 42.9153 60.4084C42.6925 60.7875 42.379 61.1115 42.0882 61.483C43.3005 63.1545 44.7357 64.6004 46.4238 65.8228C46.5522 65.7072 46.6599 65.6143 46.7618 65.5177C47.8269 64.4905 48.9391 64.337 50.293 64.9624C51.1655 65.3661 52.0624 65.7167 52.9594 66.0635C54.0357 66.4785 54.6834 67.2422 54.8779 68.3774C54.9308 68.6882 54.9138 69.0123 54.9308 69.3496C56.9985 69.6945 59.0304 69.6964 61.1113 69.3439C61.1113 69.1411 61.1095 68.9668 61.1113 68.7905C61.134 67.5246 61.8535 66.524 63.0167 66.071C63.9948 65.6901 64.9655 65.2827 65.9285 64.862C66.5951 64.572 67.2919 64.4412 67.9547 64.7217C68.5476 64.9719 69.0745 65.3793 69.6882 65.7508C71.2819 64.5891 72.7209 63.1469 73.9407 61.4564L73.9388 61.4621ZM46.2501 50.7244C46.3294 53.7926 48.1479 57.9922 52.2437 60.1981C56.4377 62.4552 60.6298 62.2941 64.6086 59.6694C67.7734 57.5809 69.4295 54.5241 69.8109 50.7244H46.2482H46.2501ZM53.7506 31.7961V48.9336H55.4331C55.4331 47.806 55.4256 46.7144 55.4369 45.6247C55.4425 45.0164 55.7636 44.6828 56.3565 44.6752C57.4631 44.662 58.5696 44.6601 59.6762 44.6752C60.2408 44.6828 60.5637 45.0183 60.5751 45.5925C60.5902 46.3619 60.5788 47.1332 60.5788 47.9026C60.5788 48.2513 60.5788 48.6019 60.5788 48.9392H62.2538V31.7942H53.7525L53.7506 31.7961ZM64.0439 37.2274V48.9449H68.2606V38.4308C66.867 38.0329 65.4677 37.633 64.0439 37.2274ZM51.9737 48.9468V37.2237C50.5348 37.6368 49.1393 38.0386 47.7494 38.4384V48.9468H51.9737ZM57.1742 46.4149V48.9373H58.8227V46.4149H57.1742Z" fill="white"/>
<path d="M42.5736 44.6469H40.8609C40.8609 43.5686 40.8609 42.5168 40.8609 41.465C40.8609 40.5515 40.8495 39.6381 40.8684 38.7247C40.8741 38.4347 40.7986 38.2585 40.5247 38.1429C40.2132 38.0121 39.911 37.8529 39.6146 37.6899C38.9329 37.3166 38.3569 37.0077 37.5053 37.5554C36.563 38.1599 35.3054 37.7221 34.5821 36.8371C33.8778 35.9749 33.806 34.7715 34.4027 33.8296C34.9995 32.8858 36.1192 32.4348 37.188 32.7077C38.2965 32.9901 39.1085 33.93 39.1311 35.0519C39.1387 35.4442 39.2784 35.6129 39.6051 35.7664C40.4114 36.1454 41.2197 36.5301 41.9882 36.9793C42.245 37.129 42.5453 37.4777 42.5509 37.7392C42.5944 40.0266 42.5755 42.3178 42.5755 44.645L42.5736 44.6469ZM37.4279 35.196C37.4203 34.7317 37.0256 34.347 36.563 34.3545C36.1004 34.3621 35.717 34.7601 35.7265 35.2225C35.734 35.6887 36.1287 36.0734 36.5913 36.0639C37.054 36.0544 37.4373 35.6584 37.4298 35.196H37.4279Z" fill="white"/>
<path d="M75.146 44.6442H73.4276V44.1514C73.4276 42.1275 73.4427 40.1035 73.4181 38.0814C73.4106 37.4788 73.6391 37.1187 74.1792 36.8723C74.9571 36.5179 75.7087 36.1029 76.4791 35.7315C76.7473 35.6026 76.8663 35.4586 76.87 35.1288C76.8851 33.9311 77.7198 32.9551 78.8981 32.686C80.0141 32.4302 81.1906 32.9968 81.7212 34.0467C82.2499 35.0909 82.012 36.3474 81.1377 37.1339C80.2672 37.9165 78.9906 38.0302 78.0257 37.3461C77.7047 37.1187 77.4819 37.1244 77.1703 37.2987C76.6567 37.5849 76.1336 37.8616 75.5954 38.0928C75.2498 38.2425 75.1328 38.4377 75.1365 38.8186C75.1573 40.5545 75.146 42.2923 75.146 44.0302V44.6499V44.6442ZM80.2804 35.1914C80.2709 34.7271 79.8744 34.3424 79.4136 34.3518C78.9491 34.3613 78.5695 34.7574 78.579 35.2217C78.5884 35.6879 78.9831 36.0688 79.4457 36.0612C79.9084 36.0536 80.2898 35.6557 80.2804 35.1914Z" fill="white"/>
<path d="M49.4338 35.1865H47.7154C47.7154 33.8239 47.6399 32.4803 47.7381 31.1499C47.8231 30.0015 47.5474 29.1127 46.6089 28.4172C46.3445 28.2201 46.167 28.1102 45.8233 28.2163C44.73 28.5479 43.597 28.0988 42.9833 27.1418C42.3922 26.2207 42.4432 25.0401 43.1117 24.1759C43.8104 23.2738 44.9792 22.9365 46.0386 23.3307C47.0734 23.7173 47.7513 24.7293 47.7154 25.8341C47.7136 25.9062 47.7306 25.9895 47.6985 26.0464C47.2887 26.7931 47.7419 27.2536 48.2631 27.644C49.2223 28.3641 49.5377 29.2813 49.4565 30.4828C49.3545 32.0312 49.4319 33.5908 49.4319 35.1865H49.4338ZM45.119 26.6017C45.5797 26.6149 45.982 26.2378 45.9971 25.7735C46.0122 25.3111 45.6345 24.9074 45.1719 24.8923C44.7111 24.8771 44.3089 25.2561 44.2938 25.7204C44.2787 26.1847 44.6563 26.5865 45.119 26.6017Z" fill="white"/>
<path d="M68.2891 35.2009H66.6142C66.599 35.0606 66.5745 34.9261 66.5745 34.7896C66.5726 32.9987 66.5518 31.2079 66.5915 29.4189C66.599 29.0834 66.8049 28.7291 66.9918 28.4277C67.1486 28.1757 67.4016 27.9824 67.6244 27.7758C68.1607 27.2831 68.5818 26.8605 68.3401 25.9432C68.0587 24.8763 68.8594 23.7809 69.9055 23.3583C70.9573 22.9319 72.1319 23.237 72.8513 24.122C73.5538 24.9843 73.6237 26.1839 73.0251 27.1296C72.4189 28.0866 71.2802 28.5433 70.1907 28.2174C69.8527 28.1169 69.6714 28.2041 69.4032 28.4088C68.4817 29.11 68.1758 29.9817 68.2665 31.1396C68.3703 32.47 68.291 33.8136 68.291 35.2009H68.2891ZM70.8761 26.6027C71.3388 26.5914 71.7202 26.1934 71.7089 25.7291C71.6976 25.2629 71.301 24.882 70.8403 24.8934C70.3738 24.9047 69.9981 25.3008 70.0075 25.767C70.0169 26.2313 70.4135 26.6141 70.8761 26.6027Z" fill="white"/>
<path d="M58.8628 29.166H57.1444C57.1444 28.9537 57.1444 28.7623 57.1444 28.5709C57.1444 26.854 57.1387 25.137 57.1501 23.4181C57.152 23.1339 57.0708 22.986 56.8102 22.8439C55.7187 22.2583 55.2183 21.1061 55.5148 19.9501C55.8131 18.7808 56.8158 17.9981 58.013 18C59.1838 18.0019 60.1809 18.777 60.4849 19.9179C60.7965 21.0947 60.2998 22.2545 59.18 22.8534C58.9062 22.9993 58.859 23.168 58.859 23.439C58.8666 25.1389 58.8628 26.8388 58.8628 28.5368V29.166ZM57.9979 19.7321C57.5315 19.7359 57.1501 20.1244 57.152 20.5925C57.1538 21.0587 57.5447 21.4453 58.0074 21.4415C58.4719 21.4377 58.8571 21.0473 58.8533 20.5811C58.8496 20.1149 58.4606 19.7283 57.9979 19.7321Z" fill="white"/>
<path d="M40.8989 46.4141H42.5512V48.0704H40.8989V46.4141Z" fill="white"/>
<path d="M73.4727 46.3984H75.1042V48.0737H73.4727V46.3984Z" fill="white"/>
<path d="M55.4619 34.375H60.534V36.0351H55.4619V34.375Z" fill="white"/>
<path d="M60.5636 37.8203V39.4653H55.4707V37.8203H60.5636Z" fill="white"/>
<path d="M55.4541 42.9141V41.2578H60.5318V42.9141H55.4541Z" fill="white"/>
<path d="M64.8975 39.5273H67.4014V41.2026H64.8975V39.5273Z" fill="white"/>
<path d="M64.8784 44.6273V42.9805H67.4031V44.6273H64.8784Z" fill="white"/>
<path d="M51.1282 39.5508V41.2014H48.6016V39.5508H51.1282Z" fill="white"/>
<path d="M48.5991 44.6427V42.9883H51.1125V44.6427H48.5991Z" fill="white"/>
</svg>
