<svg width="117" height="122" viewBox="0 0 117 122" fill="none" xmlns="http://www.w3.org/2000/svg">
<path d="M108.925 20.5149C105.198 20.5057 100.228 20.513 96.5 20.516C96.6845 20.7642 96.4877 21.1568 96.5 21.5C96.5338 22.4713 96.7399 23.4685 96.5 24.3356L98.4896 24.3295C101.827 24.3295 105.164 24.3172 108.501 24.3356C110.946 24.3478 112.228 25.5765 112.232 27.9939C112.244 47.4466 112.238 66.8992 112.238 86.3519C112.238 86.5756 112.21 86.7992 112.192 87.0995L94.1622 87.1056C92.0953 87.1424 92.1815 87.1546 91.0865 87.1056C90.902 87.0964 91.0865 87.1056 90.2807 87.0934H25.7692C25.3663 87.0995 25.2894 87.1056 25.2925 87.1056C25.2864 87.1056 25.2802 87.1056 25.271 87.1056C24.9634 87.0964 25.271 87.1056 24.2591 87.1516C23.2072 87.1945 22.1492 87.1883 21.0881 87.2037C20.8974 87.2037 20.7252 87.1791 20.5683 87.1301H3.24018V85.8586C3.24018 66.7123 3.24018 47.566 3.24018 28.4167C3.24018 25.4692 4.39047 24.3295 7.35539 24.3295C11.0185 24.3295 16.7846 24.502 20.5 24.502C20.1432 23.2519 20.5062 21.8102 20.5 20.502C16.8677 20.502 10.757 20.5057 7.18623 20.5119C2.80037 20.5241 0.00768909 23.3092 0.00461346 27.6906C-0.00153782 50.823 -0.00153782 73.9554 0.00461346 97.0878C0.00461346 101.524 2.81575 104.306 7.26927 104.309C18.5907 104.309 29.909 104.309 41.2305 104.309H42.6914C41.4704 108.985 40.2893 113.504 39.1021 118.042C37.3859 118.042 35.8143 118.029 34.2426 118.045C32.8555 118.06 32.1819 118.642 32.1727 119.791C32.1635 120.952 32.8278 121.562 34.2088 121.562C50.0944 121.568 65.9832 121.568 81.8689 121.562C83.2529 121.562 83.9265 120.959 83.9265 119.81C83.9265 118.655 83.256 118.06 81.8719 118.048C80.2665 118.029 78.6579 118.045 76.9878 118.045C75.7945 113.455 74.6165 108.939 73.4139 104.312H74.9641C86.2855 104.312 97.6038 104.312 108.925 104.312C113.228 104.312 116.088 101.497 116.088 97.2226C116.098 74.0136 116.098 50.8046 116.088 27.5956C116.088 23.3153 113.253 20.5302 108.925 20.518V20.5149ZM42.5807 118.477C43.1158 116.418 43.6264 114.442 44.14 112.465C44.7367 110.177 45.361 107.894 45.9177 105.593C46.0654 104.986 46.3206 104.809 46.9235 104.809C54.2127 104.827 61.4989 104.812 68.7882 104.846C69.0896 104.846 69.5971 105.176 69.6647 105.44C70.7658 109.72 71.8115 114.016 72.9095 118.477H42.5837H42.5807ZM112.232 97.6791C112.188 99.9464 110.881 101.221 108.618 101.221C74.7026 101.224 40.7906 101.227 6.87559 101.221C4.53195 101.221 3.29247 100.029 3.24941 97.7281C3.20943 95.5191 3.24018 93.3069 3.24018 90.9539H112.102C112.149 91.2112 112.232 91.4625 112.235 91.7168C112.244 93.7052 112.268 95.6937 112.235 97.6791H112.232Z" fill="white"/>
<path d="M60.7485 96.2116C60.7485 97.8232 59.3891 99.1928 57.7713 99.2081C56.1074 99.2234 54.7049 97.8171 54.7326 96.1595C54.7603 94.5632 56.1658 93.1967 57.7682 93.212C59.3737 93.2274 60.7485 94.6122 60.7485 96.2116Z" fill="white"/>
<g clip-path="url(#clip0_1138_2398)">
<path d="M96.7995 81.6301V26.7051H96.8174C96.8174 26.0727 96.8174 25.4434 96.8174 24.8111C96.8174 24.775 96.8174 24.7388 96.8174 24.7027C96.8039 24.5686 96.8039 24.4334 96.8174 24.2992H96.7965V22.1915C96.7965 21.8392 96.7665 21.4839 96.7426 21.1346C96.6079 18.9636 96.7785 16.7264 96.7815 14.5463H96.7097C96.7097 12.2158 96.7276 9.96951 96.7097 7.72626C96.7217 6.90112 96.6505 6.07688 96.4971 5.26621C96.1752 3.76398 95.3476 2.41956 94.1541 1.46005C92.9607 0.500537 91.4745 -0.0152453 89.9467 -0.000166818H27.2061C23.2124 -0.000166818 20.2755 2.90251 20.2156 6.92531C20.1857 8.99392 20.2156 11.0625 20.2156 13.1311V14.5102H20.1348C20.2081 15.3034 20.2081 16.1018 20.1348 16.895H20.1527V19.1804H20.0509C20.0509 19.2286 20.0719 19.2767 20.0779 19.3249C20.172 20.1013 20.166 20.8867 20.0599 21.6615H20.1198V24.3263C20.1198 24.8292 20.03 25.326 20.009 25.8319C20.1087 26.1171 20.1284 26.4244 20.0659 26.7201H20.0988V81.6241H20.0569C20.1053 82.1784 20.0982 82.7363 20.036 83.2892C20.0567 83.449 20.0686 83.6099 20.0719 83.771C20.1336 83.8629 20.2105 83.9433 20.2994 84.0089H97.0001C96.9222 83.223 96.8983 82.4371 96.8953 81.6392L96.7995 81.6301ZM94.4044 81.6H22.6495V40.4627H94.3955L94.4044 81.6ZM22.6466 38.099V13.8327H79.6691C78.0015 17.8555 74.9179 19.9241 71.0081 20.99C67.9873 21.8151 64.8738 22.4143 61.9698 23.5465C56.2457 25.7807 51.9886 29.668 49.9378 35.6721C49.6744 36.4489 49.4768 37.2499 49.2313 38.099H22.6466ZM94.4434 38.0659H51.6323C52.8867 32.926 55.9374 29.3337 60.3712 26.7954C63.4697 25.0309 66.8617 24.1667 70.3165 23.4561C75.6843 22.3571 79.8756 19.6983 81.9413 14.3145C82.0066 14.1762 82.1031 14.0551 82.2232 13.961C82.3433 13.8669 82.4836 13.8023 82.6329 13.7725C86.5488 13.7394 90.4676 13.7484 94.4434 13.7484V38.0659ZM94.5002 11.3697H22.5418C22.5418 9.62624 22.41 7.93101 22.5717 6.25083C22.7962 3.91423 24.5865 2.36955 26.9546 2.23706C27.254 2.23706 27.5534 2.23706 27.8527 2.23706H89.0246C92.7639 2.23706 94.4973 3.98951 94.5002 7.7654V11.3697Z" fill="white"/>
<path d="M79.6091 46.0058C81.2138 46.0058 82.8215 45.9847 84.4231 46.0058C86.5367 46.0389 87.9737 47.421 87.9797 49.3812C87.9857 51.3415 86.5098 52.7838 84.4471 52.7988C81.1619 52.8229 77.8777 52.8229 74.5945 52.7988C72.5378 52.7807 71.0799 51.2933 71.1008 49.3451C71.1218 47.3969 72.5378 46.0329 74.5706 46.0058C76.2501 45.9817 77.9296 46.0058 79.6091 46.0058ZM79.5014 50.5586C81.0671 50.5586 82.6328 50.5586 84.1986 50.5586C85.0309 50.5586 85.7374 50.3358 85.7494 49.3541C85.7613 48.3725 85.0398 48.1497 84.2166 48.1497C81.0831 48.1497 77.9506 48.1497 74.8191 48.1497C73.9808 48.1497 73.2982 48.4207 73.3222 49.4083C73.3491 50.3117 74.0018 50.5676 74.7951 50.5676L79.5014 50.5586Z" fill="white"/>
<path d="M58.1619 52.8112C56.5572 52.8112 54.9525 52.8292 53.3479 52.8112C51.2881 52.7841 49.8032 51.3357 49.8032 49.3996C49.8032 47.4635 51.2462 46.0332 53.3509 46.0152C56.634 45.9891 59.9182 45.9891 63.2034 46.0152C65.299 46.0363 66.7121 47.4725 66.6821 49.4568C66.6582 51.3628 65.2152 52.769 63.2004 52.8052C61.5209 52.8323 59.8414 52.8112 58.1619 52.8112ZM58.2217 50.5589H63.0297C63.8351 50.5589 64.4578 50.2578 64.4608 49.3545C64.4638 48.4511 63.8261 48.15 63.0297 48.15C59.8583 48.15 56.6899 48.15 53.5245 48.15C52.7431 48.15 52.0605 48.3789 52.0276 49.3003C52.0037 50.2698 52.6683 50.5649 53.5245 50.5679L58.2217 50.5589Z" fill="white"/>
<path d="M36.9389 52.8111C35.3342 52.8111 33.7296 52.8262 32.1249 52.8111C30.0083 52.787 28.4695 51.3056 28.4964 49.3544C28.5234 47.4032 29.9933 46.0422 32.1069 46.0151C35.3203 45.991 38.5316 45.991 41.7409 46.0151C43.9234 46.0151 45.4143 47.4213 45.4203 49.3966C45.4263 51.3718 43.8994 52.7961 41.7559 52.8141C40.1512 52.8232 38.5615 52.8111 36.9389 52.8111ZM37.0107 50.5589C38.5406 50.5589 40.0704 50.5589 41.6032 50.5589C42.4385 50.5589 43.163 50.339 43.1869 49.3815C43.2109 48.424 42.5163 48.1319 41.6691 48.1319H32.2746C31.4393 48.1319 30.7268 48.3879 30.7478 49.3635C30.7687 50.339 31.4842 50.5679 32.3195 50.5528C33.8763 50.5528 35.445 50.5589 37.0107 50.5589Z" fill="white"/>
<path d="M58.2037 59.104H51.4707C50.6474 59.104 49.7912 59.0769 49.7972 57.9538C49.7972 56.8879 50.6204 56.8818 51.4078 56.8818C55.9683 56.8818 60.5298 56.8818 65.0924 56.8818C65.8977 56.8818 66.6821 56.939 66.6581 58.002C66.6342 59.0649 65.8378 59.104 65.0445 59.104H58.2037Z" fill="white"/>
<path d="M58.2246 64.5781C55.9075 64.5781 53.5873 64.5781 51.2701 64.5781C50.4857 64.5781 49.7732 64.4577 49.7942 63.4791C49.8151 62.5005 50.4917 62.356 51.2731 62.356H65.1822C65.9606 62.356 66.6581 62.5186 66.6611 63.4791C66.6641 64.4396 65.9636 64.5811 65.1642 64.5781C62.862 64.5721 60.5418 64.5781 58.2246 64.5781Z" fill="white"/>
<path d="M79.5762 56.8849C81.8933 56.8849 84.2135 56.8849 86.5337 56.8849C87.2851 56.8849 87.9318 57.0475 87.9527 57.9358C87.9737 58.8813 87.3031 59.1041 86.5097 59.1041H72.4869C71.6756 59.1041 71.0289 58.8481 71.0678 57.8997C71.1068 57.0264 71.7564 56.8608 72.5108 56.8669C74.8669 56.909 77.223 56.8849 79.5762 56.8849Z" fill="white"/>
<path d="M37.0646 56.8853C39.3818 56.8853 41.702 56.8853 44.0192 56.8853C44.7916 56.8853 45.4322 57.099 45.4442 57.9421C45.4562 58.7852 44.8455 59.1074 44.082 59.1074C39.3299 59.1074 34.5798 59.1074 29.8317 59.1074C29.1072 59.1074 28.5413 58.8063 28.5264 58.0174C28.5264 57.1593 29.1012 56.8883 29.8825 56.8913C32.2746 56.8913 34.6696 56.8853 37.0646 56.8853Z" fill="white"/>
<path d="M37.0016 64.5782C34.6814 64.5782 32.3612 64.5782 30.0411 64.5782C29.2537 64.5782 28.5442 64.4367 28.5262 63.4972C28.5083 62.5578 29.2058 62.353 30.0022 62.353C34.6425 62.353 39.2819 62.353 43.9202 62.353C44.7106 62.353 45.4171 62.5367 45.4411 63.4521C45.465 64.3674 44.7705 64.5842 43.9442 64.5782C41.642 64.5692 39.3218 64.5782 37.0016 64.5782Z" fill="white"/>
<path d="M79.4506 64.5782C77.1304 64.5782 74.8133 64.5782 72.4931 64.5782C71.7357 64.5782 71.098 64.4005 71.074 63.5243C71.0471 62.5818 71.7117 62.353 72.511 62.356H86.5369C87.3392 62.356 87.9949 62.6029 87.9589 63.5454C87.923 64.4336 87.2644 64.5812 86.5189 64.5782C84.1628 64.5721 81.8067 64.5782 79.4506 64.5782Z" fill="white"/>
<path d="M33.1906 70.0374C32.0679 70.0374 30.9452 70.0374 29.8226 70.0374C29.0861 70.0374 28.5352 69.7603 28.5173 68.9714C28.4993 68.1825 29.0532 67.8483 29.7777 67.8423C32.0978 67.8423 34.418 67.8423 36.7382 67.8423C37.4567 67.8423 38.0375 68.1434 38.0405 68.9293C38.0405 69.7814 37.4417 70.0524 36.6693 70.0434C35.5077 70.0283 34.3492 70.0374 33.1906 70.0374Z" fill="white"/>
<path d="M54.5243 70.0375H51.0515C50.324 70.0375 49.7911 69.7725 49.7881 68.9505C49.7851 68.1285 50.339 67.8515 51.0515 67.8455C53.3667 67.8334 55.6819 67.8334 57.997 67.8455C58.7096 67.8455 59.2574 68.1466 59.2574 68.9565C59.2574 69.7665 58.7305 70.0405 57.997 70.0405C56.8414 70.0345 55.6828 70.0375 54.5243 70.0375Z" fill="white"/>
<path d="M75.816 70.0345H72.3462C71.6696 70.0345 71.1487 69.7846 71.1187 69.0288C71.0738 68.2128 71.5768 67.8575 72.3163 67.8515C74.7113 67.8314 77.0983 67.8314 79.4774 67.8515C80.16 67.8515 80.624 68.2279 80.6 68.9746C80.5761 69.7214 80.0971 70.0195 79.4025 70.0255C78.202 70.0405 77.0105 70.0345 75.816 70.0345Z" fill="white"/>
<path d="M30.2328 16.2598C30.8316 16.2598 31.4303 16.2598 32.0291 16.2598C32.7745 16.2598 33.2715 16.6 33.2655 17.3919C33.2655 18.1206 32.7895 18.4669 32.0949 18.4759C30.8256 18.494 29.5562 18.494 28.2868 18.4759C27.6013 18.4759 27.1283 18.1447 27.1133 17.401C27.1133 16.597 27.5923 16.2718 28.3347 16.2598C28.9634 16.2598 29.5981 16.2598 30.2328 16.2598Z" fill="white"/>
<path d="M64.4668 7.94308H47.6357C47.2615 7.94308 46.8184 8.05148 46.531 7.88888C46.1388 7.66305 45.6149 7.23247 45.6089 6.88017C45.603 6.52787 46.0939 6.06718 46.4711 5.79919C46.7017 5.63358 47.1208 5.72392 47.4591 5.72392C58.8355 5.72392 70.2118 5.72392 81.5882 5.72392C81.8876 5.72392 82.2737 5.63057 82.4654 5.78113C82.8575 6.08223 83.3635 6.50981 83.4024 6.93136C83.4323 7.23247 82.8246 7.66305 82.4234 7.89791C82.166 8.04546 81.7648 7.94308 81.4265 7.94308H64.4668Z" fill="white"/>
<path d="M36.3011 8.1299C36.0018 7.69932 35.4898 7.24766 35.5228 6.84417C35.5557 6.48887 36.2173 5.92279 36.5885 5.94085C36.9598 5.95892 37.5376 6.54307 37.5885 6.9315C37.6394 7.31993 37.0945 7.72341 36.8161 8.13593L36.3011 8.1299Z" fill="white"/>
<path d="M33.6937 7.03981C33.2686 7.34092 32.8405 7.85882 32.4154 7.8528C32.0441 7.8528 31.4484 7.3078 31.3585 6.91033C31.3242 6.7633 31.327 6.60994 31.3668 6.46429C31.4066 6.31864 31.4821 6.18535 31.5863 6.07662C31.6905 5.96789 31.8202 5.88718 31.9635 5.84188C32.1068 5.79658 32.259 5.78813 32.4064 5.81731C32.8495 5.87753 33.2476 6.27801 33.6668 6.52492L33.6937 7.03981Z" fill="white"/>
<path d="M29.4454 6.98558C29.0293 7.28669 28.6102 7.84675 28.197 7.84374C27.8438 7.84374 27.23 7.2084 27.2211 6.84105C27.2121 6.4737 27.7839 5.87148 28.1701 5.80524C28.5563 5.739 28.9964 6.24486 29.4155 6.49779L29.4454 6.98558Z" fill="white"/>
</g>
<defs>
<clipPath id="clip0_1138_2398">
<rect width="77" height="84" fill="white" transform="translate(20)"/>
</clipPath>
</defs>
</svg>
