<svg width="117" height="123" viewBox="0 0 117 123" fill="none" xmlns="http://www.w3.org/2000/svg">
<g clip-path="url(#clip0_664_5409)">
<path d="M100.139 5.45481V79.6113C99.7733 80.4389 99.4995 81.3282 99.0197 82.0816C98.1985 83.3755 96.8637 83.9653 95.4305 84.3482H21.7136C18.0505 83.4218 16.9525 80.7199 16.9709 77.6505C17.0478 62.8254 17.0048 48.0002 17.0048 33.1751C17.0048 24.2788 17.0017 15.3856 17.0048 6.48926C17.0048 3.71013 18.561 1.65666 21.1999 0.881592C21.323 0.844537 21.4337 0.770426 21.5506 0.714844C46.2325 0.714844 70.9115 0.714844 95.5935 0.714844C96.3162 1.04834 97.0882 1.31081 97.7556 1.73386C99.0997 2.58921 99.7579 3.94481 100.139 5.45172V5.45481ZM19.7698 42.5346C19.7698 54.4571 19.7698 66.3765 19.7698 78.2989C19.7698 80.4883 20.8339 81.5629 23.0023 81.5629C46.7031 81.5629 70.404 81.5629 94.1049 81.5629C96.3224 81.5629 97.3712 80.4975 97.3712 78.2495C97.3712 54.4355 97.3712 30.6183 97.3712 6.80423C97.3712 4.55931 96.3224 3.50015 94.0987 3.50015C70.4255 3.50015 46.7493 3.50015 23.0761 3.50015C20.797 3.50015 19.7698 4.54078 19.7698 6.85364C19.7698 18.7483 19.7698 30.643 19.7698 42.5346Z" fill="white"/>
<path d="M58.5687 78.7792C47.6902 78.7792 36.8116 78.7792 25.9362 78.7792C23.5526 78.7792 22.5376 77.7541 22.5376 75.3455C22.5376 55.311 22.5376 35.2766 22.5376 15.2421C22.5376 12.8953 23.571 11.8516 25.8993 11.8516C47.6809 11.8516 69.4657 11.8516 91.2474 11.8516C93.5695 11.8516 94.6059 12.8984 94.6059 15.2452C94.6059 35.3074 94.6059 55.3697 94.6059 75.4288C94.6059 77.717 93.5541 78.7762 91.2843 78.7762C80.378 78.7762 69.4749 78.7762 58.5687 78.7762V78.7792ZM25.3518 75.9476H91.7764V14.7048H25.3518V75.9476Z" fill="white"/>
<path d="M87.6369 9.06887C86.3144 9.06887 84.9919 9.08123 83.6663 9.06579C82.7251 9.05652 82.1069 8.4729 82.1285 7.65769C82.1469 6.87954 82.7559 6.29901 83.6478 6.29283C86.3206 6.27739 88.9933 6.27739 91.6691 6.29283C92.6287 6.29901 93.2038 6.87027 93.1885 7.71636C93.1731 8.54084 92.6256 9.05344 91.6906 9.06579C90.3404 9.08123 88.9902 9.06887 87.64 9.06887H87.6369Z" fill="white"/>
<path d="M32.9364 9.06656C31.5339 9.06656 30.8757 8.63425 30.8634 7.69861C30.8511 6.74135 31.5401 6.28125 32.9826 6.28125C33.0902 6.28125 33.1979 6.28125 33.3055 6.28125C34.3666 6.29669 35.0279 6.84634 35.0125 7.70478C34.9971 8.5447 34.3758 9.05112 33.3393 9.06656C33.204 9.06656 33.0687 9.06656 32.9333 9.06656H32.9364Z" fill="white"/>
<path d="M25.9703 9.06924C25.835 9.06924 25.6996 9.06924 25.5643 9.06924C24.5309 9.05071 23.9435 8.53812 23.9558 7.66423C23.965 6.83049 24.5524 6.31172 25.5243 6.28702C25.9026 6.27776 26.2809 6.26849 26.6562 6.2932C27.5389 6.34878 28.0925 6.9324 28.0617 7.74761C28.031 8.53194 27.4897 9.0291 26.6162 9.06615C26.4009 9.07542 26.1856 9.06615 25.9672 9.06615L25.9703 9.06924Z" fill="white"/>
<path d="M39.8723 9.06029C39.6293 9.06029 39.3863 9.07573 39.1434 9.06029C38.3529 9.00471 37.8085 8.45506 37.7962 7.71395C37.7808 6.9852 38.316 6.37688 39.0911 6.30277C39.5463 6.25954 40.0076 6.27189 40.4659 6.29042C41.3547 6.33056 41.9453 6.90801 41.936 7.69851C41.9299 8.49211 41.3363 9.03559 40.4382 9.06647C40.2506 9.07264 40.0599 9.06647 39.8723 9.06647C39.8723 9.06647 39.8723 9.06647 39.8723 9.06338V9.06029Z" fill="white"/>
<path d="M58.5474 18.8431C66.664 18.8431 74.7806 18.9079 82.8941 18.8091C85.7668 18.7721 87.7383 20.7452 87.6891 23.5892C87.5814 29.7373 87.6583 35.8884 87.6552 42.0396C87.6552 45.0596 85.9975 46.7239 82.9833 46.727C66.6978 46.727 50.4123 46.727 34.1268 46.727C31.1619 46.727 29.4888 45.0503 29.4888 42.089C29.4888 35.8853 29.4888 29.6786 29.4888 23.475C29.4888 20.4982 31.1435 18.8492 34.1207 18.8462C42.2619 18.8462 50.4062 18.8462 58.5474 18.8462V18.8431ZM32.263 32.7048C32.263 36.0552 32.2445 39.3469 32.2876 42.6355C32.2907 42.9814 32.5736 43.4106 32.8566 43.6453C33.5517 44.2196 35.76 43.9973 36.3936 43.3581C40.6995 39.0288 45.0607 34.7582 49.2836 30.3487C51.3781 28.1593 53.1281 28.0327 55.2011 30.3579C56.2407 31.5221 57.4217 32.5596 58.735 33.8504C60.0791 32.4145 61.3339 31.028 62.6411 29.694C64.1174 28.184 65.6798 28.2057 67.1746 29.7095C71.502 34.0542 75.8448 38.3835 80.1261 42.7745C80.9719 43.6422 81.8054 44.0529 83.0141 43.9602C84.4627 43.846 84.8872 43.5032 84.8872 42.0272C84.8872 35.9039 84.8872 29.7805 84.8872 23.6571C84.8872 22.0175 84.5058 21.6284 82.8972 21.6284C69.9918 21.6284 57.0895 21.6284 44.1842 21.6284H43.2492C42.8709 24.5557 41.6929 27.0446 39.663 29.095C37.63 31.1454 35.1418 32.3095 32.263 32.7079V32.7048ZM77.0935 43.8892C72.9967 39.7668 68.9154 35.6568 64.7387 31.4511C63.4561 32.8623 62.1151 34.3352 60.8049 35.7742C61.6938 36.6913 62.6811 37.6949 63.6499 38.72C64.2404 39.3438 64.2619 40.1343 63.7452 40.6932C63.2039 41.283 62.3889 41.2892 61.7184 40.6963C61.5154 40.5172 61.3309 40.3165 61.1371 40.1281C58.2029 37.2348 55.2657 34.3445 52.2885 31.4078C48.201 35.5982 44.1442 39.7576 40.1182 43.8861H77.0935V43.8892ZM40.3796 21.6284C38.1713 21.6284 36.0091 21.6191 33.85 21.6315C32.7705 21.6376 32.263 22.1472 32.2599 23.2372C32.2507 25.2505 32.2538 27.2638 32.2599 29.2772C32.2599 29.4501 32.3061 29.6261 32.3307 29.7959C36.1414 29.5551 40.0936 25.5747 40.3827 21.6284H40.3796Z" fill="white"/>
<path d="M58.4984 53.6713C50.4648 53.6713 42.4312 53.6713 34.3977 53.6713C34.0993 53.6713 33.801 53.6836 33.5057 53.6527C32.7953 53.5786 32.377 53.1648 32.2724 52.4608C32.1709 51.7753 32.5738 51.1577 33.2535 50.9724C33.5611 50.889 33.8933 50.889 34.2162 50.889C50.4463 50.8859 66.6734 50.8859 82.9035 50.889C83.2265 50.889 83.5587 50.889 83.8662 50.9662C84.549 51.1422 84.9611 51.7598 84.8689 52.4423C84.7735 53.1463 84.3614 53.5694 83.6509 53.6496C83.3557 53.6836 83.0573 53.6682 82.759 53.6682C74.6701 53.6682 66.5842 53.6682 58.4953 53.6682L58.4984 53.6713Z" fill="white"/>
<path d="M66.2857 62.043C71.8034 62.043 77.3241 62.043 82.8418 62.043C84.2535 62.043 84.8871 62.4845 84.8779 63.4542C84.8687 64.4176 84.2412 64.8406 82.8172 64.8406C71.7265 64.8406 60.6326 64.8406 49.5419 64.8406C49.4342 64.8406 49.3266 64.8406 49.2159 64.8406C48.0994 64.8159 47.4997 64.3219 47.5089 63.4294C47.515 62.537 48.1056 62.0491 49.2405 62.0461C54.9212 62.0399 60.6019 62.0461 66.2857 62.043Z" fill="white"/>
<path d="M50.2063 67.6328C55.564 67.6328 60.9187 67.6328 66.2765 67.6328C67.6051 67.6328 68.2633 68.0898 68.2726 69.0039C68.2787 69.9241 67.5959 70.4212 66.3011 70.4212C55.6163 70.4212 44.9285 70.4212 34.2437 70.4212C33.9484 70.4212 33.6439 70.4212 33.3579 70.3595C32.6536 70.2081 32.2322 69.64 32.2661 68.9483C32.2968 68.2566 32.7766 67.744 33.4932 67.6606C33.7885 67.6266 34.0868 67.6359 34.3852 67.6359C39.6599 67.6359 44.9346 67.6359 50.2093 67.6359L50.2063 67.6328Z" fill="white"/>
<path d="M48.1457 59.2478C43.5231 59.2478 38.9004 59.2478 34.2746 59.2478C33.9763 59.2478 33.6749 59.2571 33.3858 59.2076C32.7183 59.0903 32.3308 58.6642 32.2724 57.9941C32.2109 57.2839 32.543 56.7775 33.2197 56.5675C33.5211 56.4717 33.8594 56.4656 34.1793 56.4656C43.5077 56.4594 52.8361 56.4594 62.1645 56.4656C62.512 56.4656 62.878 56.4779 63.201 56.5891C63.8346 56.8083 64.1452 57.3055 64.0898 57.9817C64.0314 58.6518 63.6562 59.0872 62.9888 59.2076C62.672 59.2632 62.3429 59.2509 62.0199 59.2509C57.3973 59.2509 52.7746 59.2509 48.1488 59.2509L48.1457 59.2478Z" fill="white"/>
<path d="M75.8386 59.247C73.4304 59.247 71.0222 59.2531 68.614 59.247C67.516 59.2439 66.8762 58.7158 66.8824 57.8543C66.8916 56.999 67.5406 56.4648 68.6324 56.4617C73.4765 56.4555 78.3207 56.4555 83.1648 56.4617C84.4443 56.4617 85.1886 57.3417 84.7949 58.3515C84.515 59.0679 83.9337 59.2531 83.2232 59.2501C80.7596 59.2408 78.2991 59.247 75.8356 59.247H75.8386Z" fill="white"/>
<path d="M38.5221 62.0491C40.0876 62.0491 41.6562 62.0213 43.2217 62.0583C44.3566 62.0861 45.0732 63.0866 44.5565 63.9759C44.3258 64.3712 43.7353 64.785 43.3016 64.7942C40.0876 64.8622 36.8736 64.8498 33.6595 64.8189C32.7953 64.8128 32.2632 64.2168 32.2632 63.4386C32.2632 62.6605 32.7953 62.0799 33.6595 62.0614C35.2804 62.0244 36.9012 62.0522 38.5221 62.0522C38.5221 62.0522 38.5221 62.0522 38.5221 62.0491Z" fill="white"/>
<path d="M76.5859 26.6081C77.4317 26.3518 78.2775 25.9998 79.1571 25.8578C80.0275 25.7188 80.6211 26.2592 80.7073 27.0343C80.7965 27.8186 80.3443 28.4671 79.4862 28.569C78.5174 28.6832 78.0591 29.1742 77.93 30.1253C77.8254 30.9127 77.2595 31.3882 76.5767 31.3851C75.8908 31.3851 75.3218 30.9127 75.2234 30.1191C75.1034 29.1557 74.6359 28.6863 73.6702 28.569C72.8213 28.4671 72.3415 27.7846 72.4399 27.0343C72.5414 26.2715 73.1566 25.7219 74.0024 25.8608C74.882 26.006 75.7309 26.3549 76.5797 26.6112L76.5859 26.6081Z" fill="white"/>
<path d="M109.431 20.3215C106.312 20.3153 103.193 20.3153 100.075 20.3184H99.0811C99.0965 20.4142 99.1088 20.513 99.1088 20.6211C99.1088 21.8099 99.0903 22.9926 99.0104 24.1691C99.3241 24.1691 99.6378 24.1691 99.9515 24.1691C102.969 24.1691 105.989 24.1567 109.006 24.1753C111.451 24.1876 112.734 25.4259 112.737 27.8622C112.749 47.4675 112.743 67.0727 112.743 86.6779C112.743 86.9034 112.715 87.1288 112.697 87.4314L94.6676 87.4376C92.6007 87.4746 92.6869 87.487 91.5919 87.4376C91.4074 87.4283 91.5919 87.4376 90.7861 87.4252H26.2746C25.8717 87.4314 25.7948 87.4376 25.7979 87.4376C25.7917 87.4376 25.7856 87.4376 25.7764 87.4376C25.4688 87.4283 25.7764 87.4376 24.7645 87.4839C23.7126 87.5271 22.6546 87.5209 21.5935 87.5364C21.4028 87.5364 21.2306 87.5117 21.0737 87.4623H3.74556V86.1808C3.74556 66.8843 3.74556 47.5879 3.74556 28.2884C3.74556 25.3178 4.89584 24.1691 7.86076 24.1691C10.8872 24.1691 13.9136 24.1691 16.9677 24.1691H17.0446C17.0385 24.132 17.0292 24.095 17.0262 24.061C16.9954 23.638 17.0323 23.2056 17.0477 22.7857C17.0784 21.9581 17.0292 21.146 17.0108 20.3215H16.9646C13.846 20.3215 10.7672 20.3215 7.68852 20.3246C3.30574 20.3308 0.51306 23.1377 0.509985 27.5534C0.503833 50.8673 0.503833 74.1811 0.509985 97.4949C0.509985 101.966 3.32112 104.77 7.77464 104.773C19.0961 104.773 30.4144 104.773 41.7358 104.773H43.1968C41.9757 109.485 40.7947 114.04 39.6075 118.613C37.8913 118.613 36.3196 118.601 34.748 118.616C33.3609 118.632 32.6873 119.218 32.6781 120.376C32.6689 121.547 33.3332 122.161 34.7142 122.161C50.5998 122.167 66.4886 122.167 82.3742 122.161C83.7583 122.161 84.4318 121.553 84.4318 120.395C84.4318 119.231 83.7614 118.632 82.3773 118.619C80.7718 118.601 79.1633 118.616 77.4932 118.616C76.2999 113.991 75.1219 109.439 73.9193 104.776H75.4694C86.7909 104.776 98.1092 104.776 109.431 104.776C113.733 104.776 116.594 101.938 116.594 97.6308C116.603 74.2398 116.603 50.8487 116.594 27.4577C116.594 23.1439 113.758 20.337 109.431 20.3246V20.3215ZM43.086 119.052C43.6212 116.977 44.1318 114.985 44.6454 112.993C45.2421 110.687 45.8664 108.386 46.4231 106.067C46.5707 105.456 46.826 105.277 47.4288 105.277C54.7181 105.295 62.0043 105.28 69.2935 105.314C69.595 105.314 70.1024 105.647 70.1701 105.913C71.2712 110.226 72.3169 114.556 73.4149 119.052H43.0891H43.086ZM112.737 98.0909C112.694 100.376 111.387 101.661 109.123 101.661C75.208 101.664 41.296 101.667 7.38096 101.661C5.03732 101.661 3.79784 100.459 3.75478 98.1403C3.7148 95.9139 3.74556 93.6844 3.74556 91.3129H112.608C112.654 91.5723 112.737 91.8255 112.74 92.0818C112.752 94.0859 112.774 96.0899 112.74 98.0909H112.737Z" fill="white"/>
<path d="M61.2537 96.613C61.2537 98.2373 59.8942 99.6176 58.2764 99.633C56.6125 99.6485 55.21 98.2311 55.2377 96.5606C55.2654 94.9517 56.671 93.5745 58.2734 93.59C59.8788 93.6054 61.2537 95.0011 61.2537 96.613Z" fill="white"/>
</g>
<defs>
<clipPath id="clip0_664_5409">
<rect width="116.093" height="121.451" fill="white" transform="translate(0.506836 0.71875)"/>
</clipPath>
</defs>
</svg>
