<svg width="117" height="125" viewBox="0 0 117 125" fill="none" xmlns="http://www.w3.org/2000/svg">
<g clip-path="url(#clip0_664_5473)">
<path d="M66.234 24.0841C66.071 24.8156 66.0679 25.5781 65.9326 26.217L71.9178 26.2293C71.8809 25.8929 71.9055 25.5472 71.9516 25.2046C71.9147 24.9978 71.8839 24.791 71.8593 24.5934C71.764 23.8125 71.7671 23.0223 71.8224 22.2383H65.3574C66.071 22.4852 66.3847 23.405 66.234 24.0872V24.0841Z" fill="white"/>
<path d="M108.924 22.3286C104.51 22.3194 100.097 22.3286 95.6862 22.3286H95.2649C94.8035 22.3533 94.4683 22.3718 94.2161 22.3873C93.4472 22.3595 92.0908 22.3132 89.658 22.2422H73.9507C73.9476 22.3194 73.9446 22.3934 73.9446 22.4706C73.9446 22.699 73.9538 22.9274 73.963 23.1558C73.9876 23.6744 74.0215 24.196 74.0184 24.7146C74.0184 25.0819 73.9938 25.511 73.9046 25.9153C73.9169 26.0234 73.9261 26.1314 73.9353 26.2394L89.2213 26.2703L93.0074 26.1623C93.4502 26.1653 94.1361 26.1715 95.1665 26.1777C96.2952 26.1777 97.3963 26.1777 98.4943 26.1777C101.831 26.1777 105.168 26.1653 108.506 26.1839C110.951 26.1962 112.233 27.434 112.236 29.8693C112.249 49.4666 112.242 69.0638 112.242 88.6611C112.242 88.8864 112.215 89.1117 112.196 89.4142L94.1669 89.4204C92.1001 89.4574 92.1862 89.4698 91.0912 89.4204C90.9067 89.4111 91.0912 89.4204 90.2854 89.408H25.7678C25.3649 89.4142 25.288 89.4204 25.291 89.4204C25.2849 89.4204 25.2787 89.4204 25.2695 89.4204C24.962 89.4111 25.2695 89.4204 24.2576 89.4667C23.2058 89.5099 22.1477 89.5037 21.0866 89.5191C20.896 89.5191 20.7237 89.4944 20.5669 89.4451H3.23872V88.1641C3.23872 68.8755 3.23872 49.587 3.23872 30.2953C3.23872 27.3259 4.38901 26.1777 7.35392 26.1777C11.912 26.1777 16.4701 26.1777 21.1266 26.1777C21.1758 26.153 24.8205 26.1592 24.9496 26.1437H25.0696C25.1004 26.1437 25.1403 26.1437 25.1803 26.1437L42.0871 26.1777C41.9887 25.7332 42.041 25.2054 42.0348 24.7887C42.0225 23.9368 42.0194 23.091 42.1086 22.2453H25.5033C23.6579 22.2854 22.8828 22.3039 22.7044 22.3101C22.3354 22.3163 21.9263 22.3255 21.468 22.3317C16.6147 22.3317 11.8966 22.3255 7.17861 22.3317C2.7989 22.3379 0.00622425 25.1437 0.00314861 29.5576C-0.00300266 52.8619 -0.00300266 76.1662 0.00314861 99.4706C0.00314861 103.94 2.81428 106.743 7.2678 106.746C18.5892 106.746 29.9076 106.746 41.229 106.746H42.6899C41.4689 111.456 40.2878 116.009 39.1007 120.58C37.3844 120.58 35.8128 120.568 34.2411 120.583C32.854 120.599 32.1805 121.185 32.1712 122.343C32.162 123.513 32.8264 124.127 34.2073 124.127C50.093 124.133 65.9817 124.133 81.8674 124.127C83.2514 124.127 83.925 123.519 83.925 122.361C83.925 121.198 83.2545 120.599 81.8705 120.586C80.265 120.568 78.6564 120.583 76.9864 120.583C75.793 115.96 74.6151 111.41 73.4125 106.749H74.9626C86.284 106.749 97.6024 106.749 108.924 106.749C113.227 106.749 116.087 103.912 116.087 99.6064C116.096 76.2249 116.096 52.8434 116.087 29.4619C116.087 25.1498 113.251 22.344 108.924 22.3317V22.3286ZM93.0966 26.1406C93.4933 26.0666 93.724 26.1345 94.1577 26.1406C94.2684 26.1406 93.6471 26.1406 93.0966 26.1406ZM42.5792 121.019C43.1144 118.944 43.6249 116.953 44.1385 114.963C44.7352 112.657 45.3596 110.357 45.9163 108.039C46.0639 107.428 46.3192 107.249 46.922 107.249C54.2113 107.267 61.4975 107.252 68.7867 107.286C69.0881 107.286 69.5956 107.619 69.6633 107.885C70.7644 112.197 71.8101 116.524 72.9081 121.019H42.5823H42.5792ZM112.23 100.066C112.187 102.35 110.88 103.634 108.616 103.634C74.7012 103.638 40.7892 103.641 6.87412 103.634C4.53049 103.634 3.29101 102.434 3.24795 100.116C3.20796 97.8902 3.23872 95.6616 3.23872 93.2911H112.101C112.147 93.5503 112.23 93.8034 112.233 94.0596C112.245 96.0629 112.267 98.0661 112.233 100.066H112.23Z" fill="white"/>
<path d="M50.0008 22.2383H44.4462C44.4862 22.6365 44.4339 23.0655 44.4001 23.405C44.3755 23.652 44.3386 23.902 44.3293 24.1489C44.3109 24.5996 44.2524 25.0564 44.2524 25.5071C44.2524 25.7293 44.2832 25.9577 44.2678 26.1769L50.2192 26.1892C49.684 25.5873 49.4195 24.7416 49.195 23.9853C48.9428 23.1396 49.3857 22.513 50.0039 22.2383H50.0008Z" fill="white"/>
<path d="M60.7468 98.5884C60.7468 100.212 59.3874 101.592 57.7696 101.607C56.1057 101.623 54.7032 100.206 54.7309 98.5359C54.7586 96.9278 56.1641 95.5511 57.7665 95.5665C59.372 95.582 60.7468 96.9771 60.7468 98.5884Z" fill="white"/>
<path d="M38.507 50.4098V49.3912C38.507 43.8753 38.507 38.3625 38.507 32.8466C38.507 31.3836 38.7162 31.1088 40.1341 30.7014C42.6161 29.9884 45.0981 29.2785 47.5832 28.5654C47.8047 28.5006 48.0231 28.4265 48.2814 28.3432C48.2814 26.0467 48.2814 23.7718 48.2814 21.497C48.2814 20.0678 48.7305 19.6172 50.1606 19.6172C55.423 19.6172 60.6855 19.6172 65.9479 19.6172C67.3781 19.6172 67.8271 20.0678 67.8271 21.4939C67.8302 23.7688 67.8271 26.0405 67.8271 28.3586C70.5121 29.1303 73.1603 29.8958 75.8084 30.6489C77.4262 31.1088 77.5984 31.328 77.5984 33.0226C77.5984 38.4798 77.5984 43.937 77.5984 49.3912C77.5984 49.706 77.5984 50.0208 77.5984 50.4345C77.9767 50.4345 78.2873 50.4345 78.598 50.4345C82.7562 50.4345 86.9145 50.4345 91.0728 50.4345C92.5029 50.4345 93.0258 50.9036 92.9335 52.3081C92.8044 54.2557 92.6106 56.2003 92.3676 58.1357C92.2138 59.3704 91.7371 59.7346 90.4976 59.7099C87.3605 59.6512 87.4773 59.8334 86.5239 62.4848C86.1394 63.5497 85.6473 64.5776 85.1706 65.6085C84.5986 66.8432 84.6724 67.3988 85.6104 68.3525C85.998 68.7476 86.3978 69.1304 86.7792 69.5317C87.3389 70.115 87.4158 70.7787 86.9699 71.4423C84.4478 75.1833 81.323 78.3225 77.5953 80.8535C76.9341 81.3011 76.2728 81.2363 75.6915 80.6714C75.2302 80.2269 74.7903 79.7609 74.3321 79.3133C73.6524 78.6497 72.8988 78.5447 72.0192 78.9336C70.4537 79.622 68.8697 80.2763 67.2796 80.906C66.3908 81.2579 65.911 81.8474 65.911 82.8136C65.911 83.3969 65.9171 83.9803 65.911 84.5637C65.8925 85.5947 65.5419 86.0422 64.5146 86.2398C61.0361 86.9096 57.536 87.0546 54.0175 86.6071C53.2117 86.5052 52.4058 86.391 51.6062 86.2367C50.5789 86.0361 50.2314 85.5947 50.2129 84.5575C50.2037 83.9742 50.2129 83.3908 50.2129 82.8074C50.2129 81.8814 49.7669 81.2764 48.9181 80.9338C47.3064 80.2763 45.6917 79.6281 44.0955 78.9305C43.2128 78.5447 42.4623 78.6497 41.7826 79.3164C41.3459 79.7454 40.9276 80.1899 40.4816 80.6128C39.8142 81.2456 39.1991 81.3104 38.4455 80.7949C34.7701 78.2916 31.6853 75.1926 29.194 71.504C28.6865 70.754 28.7603 70.1397 29.4032 69.4637C29.8245 69.0193 30.2705 68.5995 30.6949 68.1581C31.3254 67.5037 31.4638 66.7722 31.0948 65.9141C30.3966 64.2843 29.7322 62.6391 29.0618 60.9939C28.7142 60.1451 28.1022 59.7068 27.1825 59.7099C26.5705 59.7099 25.9615 59.7099 25.3495 59.7099C24.5098 59.7068 23.9224 59.3241 23.8239 58.466C23.5748 56.296 23.338 54.1261 23.1811 51.9469C23.1104 50.9314 23.744 50.4314 24.8727 50.4283C29.234 50.4221 33.5952 50.4283 37.9565 50.4252C38.1011 50.4252 38.2425 50.4098 38.5132 50.3974L38.507 50.4098ZM84.008 70.7848C83.845 70.5966 83.7189 70.4391 83.5805 70.2941C81.8243 68.4513 81.5783 66.6888 82.6486 64.38C83.2945 62.9818 83.8512 61.5403 84.4017 60.1019C85.0753 58.3394 86.3117 57.2807 88.154 56.9597C88.6584 56.8701 89.1843 56.8979 89.7779 56.8702C89.9009 55.6602 90.0178 54.4934 90.1408 53.2989H80.1266C79.2623 64.9788 69.777 73.9703 58.1388 74.0104C46.2607 74.0536 36.7447 64.8029 35.9819 53.3143H25.9984C26.0446 53.9656 26.0753 54.5459 26.1368 55.1262C26.1983 55.7003 26.2937 56.2683 26.3767 56.8702C26.6289 56.8856 26.8258 56.9072 27.0226 56.9103C29.4923 56.9689 30.9563 58.0616 31.8083 60.3643C32.3435 61.8088 32.9586 63.2256 33.5891 64.63C34.2719 66.1425 34.3211 67.6303 33.4784 69.0687C33.1154 69.686 32.6049 70.2138 32.1312 70.8188C34.1058 73.5412 36.4433 75.8964 39.1929 77.8873C39.4021 77.699 39.5774 77.5477 39.7434 77.3903C41.4781 75.7173 43.2897 75.4673 45.4949 76.4859C46.9158 77.1434 48.3768 77.7144 49.8377 78.2793C51.5908 78.9552 52.6457 80.1992 52.9625 82.0481C53.0487 82.5543 53.021 83.0821 53.0487 83.6315C56.4165 84.1933 59.7259 84.1964 63.1152 83.6223C63.1152 83.292 63.1121 83.008 63.1152 82.721C63.1521 80.6591 64.3239 79.0293 66.2185 78.2916C67.8117 77.6712 69.3926 77.0076 70.9612 76.3223C72.0469 75.8501 73.1818 75.6371 74.2613 76.0939C75.2271 76.5013 76.0852 77.165 77.0848 77.77C79.6806 75.8778 82.0242 73.5289 84.0111 70.7756L84.008 70.7848ZM38.9099 53.2958C39.0391 58.2931 42.001 65.1332 48.672 68.726C55.503 72.4023 62.3309 72.1399 68.8113 67.8649C73.9661 64.4633 76.6634 59.4846 77.2847 53.2958H38.9069H38.9099ZM51.1264 22.4662V50.3789H53.8668C53.8668 48.5423 53.8545 46.7644 53.8729 44.9896C53.8822 43.9988 54.405 43.4555 55.3708 43.4432C57.1731 43.4216 58.9754 43.4185 60.7777 43.4432C61.6973 43.4555 62.2233 44.0018 62.2417 44.9371C62.2663 46.1903 62.2479 47.4466 62.2479 48.6997C62.2479 49.2677 62.2479 49.8387 62.2479 50.3882H64.976V22.4631H51.1295L51.1264 22.4662ZM67.8917 31.3126V50.3974H74.7596V33.2726C72.4898 32.6244 70.2107 31.9731 67.8917 31.3126ZM48.2322 50.4005V31.3064C45.8886 31.9793 43.6157 32.6337 41.352 33.2849V50.4005H48.2322ZM56.7025 46.2767V50.3851H59.3875V46.2767H56.7025Z" fill="white"/>
<path d="M32.9218 43.3985H30.1322C30.1322 41.6422 30.1322 39.9291 30.1322 38.216C30.1322 36.7282 30.1137 35.2405 30.1445 33.7527C30.1537 33.2804 30.0307 32.9934 29.5847 32.8051C29.0772 32.5921 28.5851 32.3328 28.1023 32.0674C26.9919 31.4593 26.0539 30.9562 24.6668 31.8482C23.132 32.8329 21.0836 32.1198 19.9057 30.6784C18.7585 29.2739 18.6416 27.3139 19.6135 25.7798C20.5854 24.2427 22.4092 23.508 24.1501 23.9525C25.9555 24.4124 27.278 25.9434 27.3149 27.7707C27.3272 28.4097 27.5548 28.6844 28.0869 28.9344C29.4002 29.5517 30.7165 30.1783 31.9683 30.9099C32.3866 31.1537 32.8756 31.7217 32.8849 32.1476C32.9556 35.8732 32.9249 39.605 32.9249 43.3954L32.9218 43.3985ZM24.5407 28.0053C24.5284 27.2491 23.8856 26.6225 23.132 26.6348C22.3785 26.6472 21.7541 27.2954 21.7695 28.0485C21.7818 28.8079 22.4246 29.4344 23.1782 29.419C23.9317 29.4036 24.556 28.7585 24.5437 28.0053H24.5407Z" fill="white"/>
<path d="M85.9737 43.3966H83.1748V42.594C83.1748 39.2975 83.1995 36.0009 83.1595 32.7074C83.1472 31.7259 83.5193 31.1394 84.399 30.7382C85.6661 30.1609 86.8902 29.485 88.1451 28.88C88.5818 28.6701 88.7756 28.4355 88.7817 27.8984C88.8063 25.9477 90.1658 24.358 92.085 23.9197C93.9027 23.503 95.8188 24.4259 96.6831 26.1359C97.5442 27.8367 97.1567 29.8831 95.7327 31.1641C94.3148 32.4389 92.2357 32.6241 90.664 31.5098C90.1412 31.1394 89.7782 31.1487 89.2708 31.4327C88.4342 31.8987 87.5822 32.3494 86.7057 32.726C86.1428 32.9698 85.9522 33.2877 85.9583 33.9082C85.9921 36.7355 85.9737 39.566 85.9737 42.3965V43.4058V43.3966ZM94.3363 28.0003C94.321 27.2441 93.6751 26.6175 92.9246 26.6329C92.168 26.6483 91.5498 27.2934 91.5652 28.0497C91.5806 28.809 92.2234 29.4294 92.9769 29.4171C93.7304 29.4047 94.3517 28.7565 94.3363 28.0003Z" fill="white"/>
<path d="M44.0954 27.9893H41.2966C41.2966 25.77 41.1736 23.5815 41.3335 21.4147C41.4719 19.5442 41.0229 18.0965 39.4943 16.9637C39.0637 16.6427 38.7746 16.4637 38.2148 16.6365C36.434 17.1767 34.5886 16.4452 33.589 14.8864C32.6264 13.3863 32.7094 11.4633 33.7982 10.0558C34.9362 8.58651 36.84 8.03708 38.5654 8.67911C40.2509 9.30879 41.355 10.9571 41.2966 12.7566C41.2935 12.8739 41.3212 13.0097 41.2689 13.1023C40.6015 14.3184 41.3396 15.0685 42.1885 15.7044C43.7509 16.8773 44.2646 18.3712 44.1323 20.3282C43.9662 22.85 44.0923 25.3903 44.0923 27.9893H44.0954ZM37.0676 14.0067C37.818 14.0283 38.4731 13.4141 38.4977 12.6578C38.5224 11.9047 37.9072 11.2472 37.1537 11.2225C36.4032 11.1978 35.7481 11.8152 35.7235 12.5714C35.6989 13.3276 36.314 13.982 37.0676 14.0067Z" fill="white"/>
<path d="M74.8057 28.0127H72.0776C72.053 27.7842 72.0131 27.5651 72.0131 27.3429C72.01 24.426 71.9761 21.5091 72.0407 18.5952C72.053 18.0489 72.3883 17.4717 72.6928 16.9809C72.948 16.5704 73.3602 16.2556 73.7231 15.9191C74.5966 15.1166 75.2825 14.4282 74.8888 12.9343C74.4305 11.1965 75.7346 9.41242 77.4385 8.72409C79.1516 8.02959 81.0647 8.52654 82.2365 9.96802C83.3806 11.3724 83.4944 13.3263 82.5194 14.8666C81.5321 16.4253 79.6775 17.1692 77.9029 16.6383C77.3524 16.4747 77.0571 16.6167 76.6204 16.9501C75.1194 18.0921 74.6212 19.512 74.7688 21.3979C74.938 23.5648 74.8088 25.7532 74.8088 28.0127H74.8057ZM79.0194 14.0085C79.7729 13.9899 80.3942 13.3417 80.3757 12.5855C80.3573 11.8262 79.7114 11.2058 78.9609 11.2243C78.2012 11.2428 77.5892 11.8879 77.6046 12.6472C77.6199 13.4035 78.2658 14.027 79.0194 14.0085Z" fill="white"/>
<path d="M59.4524 18.1866H56.6536C56.6536 17.8409 56.6536 17.5292 56.6536 17.2174C56.6536 14.4209 56.6443 11.6244 56.6628 8.82478C56.6659 8.36178 56.5336 8.12102 56.1092 7.88952C54.3314 6.93574 53.5164 5.05905 53.9993 3.17618C54.4852 1.27171 56.1184 -0.00308107 58.0683 5.59293e-06C59.9752 0.00309226 61.5992 1.26554 62.0944 3.12371C62.6018 5.04053 61.7929 6.92957 59.9691 7.90495C59.5231 8.14263 59.4462 8.41734 59.4462 8.85873C59.4585 11.6275 59.4524 14.3962 59.4524 17.1619V18.1866ZM58.0437 2.82122C57.2841 2.82739 56.6628 3.46016 56.6659 4.22256C56.6689 4.98188 57.3056 5.61156 58.0591 5.60539C58.8157 5.59922 59.4432 4.96336 59.437 4.20404C59.4309 3.44472 58.7973 2.81504 58.0437 2.82122Z" fill="white"/>
<path d="M30.1938 46.2773H32.885V48.9751H30.1938V46.2773Z" fill="white"/>
<path d="M83.2485 46.2578H85.9059V48.9864H83.2485V46.2578Z" fill="white"/>
<path d="M53.9131 26.668H62.1742V29.3719H53.9131V26.668Z" fill="white"/>
<path d="M62.2232 32.2852V34.9644H53.9282V32.2852H62.2232Z" fill="white"/>
<path d="M53.9009 40.5767V37.8789H62.1713V40.5767H53.9009Z" fill="white"/>
<path d="M69.2817 35.0664H73.36V37.795H69.2817V35.0664Z" fill="white"/>
<path d="M69.251 43.3698V40.6875H73.3631V43.3698H69.251Z" fill="white"/>
<path d="M46.8545 35.0977V37.7861H42.7393V35.0977H46.8545Z" fill="white"/>
<path d="M42.7363 43.3939V40.6992H46.83V43.3939H42.7363Z" fill="white"/>
</g>
<defs>
<clipPath id="clip0_664_5473">
<rect width="116.093" height="124.13" fill="white"/>
</clipPath>
</defs>
</svg>
