<svg width="117" height="123" viewBox="0 0 117 123" fill="none" xmlns="http://www.w3.org/2000/svg">
<g clip-path="url(#clip0_664_5432)">
<path d="M100.139 5.45871V79.6152C99.7733 80.4428 99.4995 81.3321 99.0197 82.0856C98.1985 83.3794 96.8637 83.9692 95.4305 84.3521H21.7136C18.0505 83.4257 16.9525 80.7238 16.9709 77.6544C17.0478 62.8293 17.0048 48.0041 17.0048 33.179C17.0048 24.2827 17.0017 15.3895 17.0048 6.49317C17.0048 3.71404 18.561 1.66057 21.1999 0.885498C21.323 0.848443 21.4337 0.774333 21.5506 0.71875C46.2325 0.71875 70.9115 0.71875 95.5935 0.71875C96.3162 1.05225 97.0882 1.31472 97.7556 1.73777C99.0997 2.59312 99.7579 3.94872 100.139 5.45563V5.45871ZM19.7698 42.5385C19.7698 54.461 19.7698 66.3804 19.7698 78.3028C19.7698 80.4922 20.8339 81.5668 23.0023 81.5668C46.7031 81.5668 70.404 81.5668 94.1049 81.5668C96.3224 81.5668 97.3712 80.5014 97.3712 78.2534C97.3712 54.4394 97.3712 30.6222 97.3712 6.80814C97.3712 4.56322 96.3224 3.50406 94.0987 3.50406C70.4255 3.50406 46.7493 3.50406 23.0761 3.50406C20.797 3.50406 19.7698 4.54469 19.7698 6.85754C19.7698 18.7522 19.7698 30.6469 19.7698 42.5385Z" fill="white"/>
<path d="M58.5687 78.7831C47.6902 78.7831 36.8116 78.7831 25.9362 78.7831C23.5526 78.7831 22.5376 77.758 22.5376 75.3494C22.5376 55.3149 22.5376 35.2805 22.5376 15.246C22.5376 12.8992 23.571 11.8555 25.8993 11.8555C47.6809 11.8555 69.4657 11.8555 91.2474 11.8555C93.5695 11.8555 94.6059 12.9023 94.6059 15.2491C94.6059 35.3113 94.6059 55.3736 94.6059 75.4328C94.6059 77.7209 93.5541 78.7801 91.2843 78.7801C80.378 78.7801 69.4749 78.7801 58.5687 78.7801V78.7831ZM25.3518 75.9515H91.7764V14.7087H25.3518V75.9515Z" fill="white"/>
<path d="M87.6369 9.07278C86.3144 9.07278 84.9919 9.08513 83.6663 9.06969C82.7251 9.06043 82.1069 8.47681 82.1285 7.6616C82.1469 6.88344 82.7559 6.30291 83.6478 6.29674C86.3206 6.2813 88.9933 6.2813 91.6691 6.29674C92.6287 6.30291 93.2038 6.87418 93.1885 7.72027C93.1731 8.54475 92.6256 9.05734 91.6906 9.06969C90.3404 9.08513 88.9902 9.07278 87.64 9.07278H87.6369Z" fill="white"/>
<path d="M32.9364 9.07046C31.5339 9.07046 30.8757 8.63815 30.8634 7.70251C30.8511 6.74526 31.5401 6.28516 32.9826 6.28516C33.0902 6.28516 33.1979 6.28516 33.3055 6.28516C34.3666 6.3006 35.0279 6.85025 35.0125 7.70869C34.9971 8.5486 34.3758 9.05502 33.3393 9.07046C33.204 9.07046 33.0687 9.07046 32.9333 9.07046H32.9364Z" fill="white"/>
<path d="M25.9703 9.07315C25.835 9.07315 25.6996 9.07315 25.5643 9.07315C24.5309 9.05462 23.9435 8.54202 23.9558 7.66814C23.965 6.8344 24.5524 6.31563 25.5243 6.29093C25.9026 6.28166 26.2809 6.2724 26.6562 6.2971C27.5389 6.35268 28.0925 6.9363 28.0617 7.75151C28.031 8.53585 27.4897 9.033 26.6162 9.07006C26.4009 9.07932 26.1856 9.07006 25.9672 9.07006L25.9703 9.07315Z" fill="white"/>
<path d="M39.8723 9.0642C39.6293 9.0642 39.3863 9.07964 39.1434 9.0642C38.3529 9.00861 37.8085 8.45896 37.7962 7.71786C37.7808 6.98911 38.316 6.38079 39.0911 6.30668C39.5463 6.26345 40.0076 6.2758 40.4659 6.29433C41.3547 6.33447 41.9453 6.91191 41.936 7.70242C41.9299 8.49602 41.3363 9.03949 40.4382 9.07037C40.2506 9.07655 40.0599 9.07037 39.8723 9.07037C39.8723 9.07037 39.8723 9.07037 39.8723 9.06728V9.0642Z" fill="white"/>
<path d="M58.5474 18.847C66.664 18.847 74.7806 18.9118 82.8941 18.813C85.7668 18.776 87.7383 20.7491 87.6891 23.5931C87.5814 29.7412 87.6583 35.8923 87.6552 42.0435C87.6552 45.0635 85.9975 46.7278 82.9833 46.7309C66.6978 46.7309 50.4123 46.7309 34.1268 46.7309C31.1619 46.7309 29.4888 45.0542 29.4888 42.0929C29.4888 35.8892 29.4888 29.6825 29.4888 23.4789C29.4888 20.5021 31.1435 18.8532 34.1207 18.8501C42.2619 18.8501 50.4062 18.8501 58.5474 18.8501V18.847ZM32.263 32.7087C32.263 36.0591 32.2445 39.3508 32.2876 42.6394C32.2907 42.9853 32.5736 43.4145 32.8566 43.6492C33.5517 44.2235 35.76 44.0012 36.3936 43.362C40.6995 39.0327 45.0607 34.7621 49.2836 30.3526C51.3781 28.1632 53.1281 28.0366 55.2011 30.3618C56.2407 31.526 57.4217 32.5635 58.735 33.8543C60.0791 32.4184 61.3339 31.0319 62.6411 29.6979C64.1174 28.188 65.6798 28.2096 67.1746 29.7134C71.502 34.0581 75.8448 38.3874 80.1261 42.7784C80.9719 43.6461 81.8054 44.0568 83.0141 43.9642C84.4627 43.8499 84.8872 43.5071 84.8872 42.0311C84.8872 35.9078 84.8872 29.7844 84.8872 23.6611C84.8872 22.0214 84.5058 21.6323 82.8972 21.6323C69.9918 21.6323 57.0895 21.6323 44.1842 21.6323H43.2492C42.8709 24.5596 41.6929 27.0485 39.663 29.0989C37.63 31.1493 35.1418 32.3134 32.263 32.7118V32.7087ZM77.0935 43.8931C72.9967 39.7708 68.9154 35.6607 64.7387 31.455C63.4561 32.8662 62.1151 34.3391 60.8049 35.7781C61.6938 36.6952 62.6811 37.6988 63.6499 38.7239C64.2404 39.3477 64.2619 40.1382 63.7452 40.6971C63.2039 41.2869 62.3889 41.2931 61.7184 40.7002C61.5154 40.5211 61.3309 40.3204 61.1371 40.132C58.2029 37.2387 55.2657 34.3484 52.2885 31.4117C48.201 35.6021 44.1442 39.7615 40.1182 43.89H77.0935V43.8931ZM40.3796 21.6323C38.1713 21.6323 36.0091 21.623 33.85 21.6354C32.7705 21.6416 32.263 22.1511 32.2599 23.2411C32.2507 25.2544 32.2538 27.2677 32.2599 29.2811C32.2599 29.454 32.3061 29.63 32.3307 29.7998C36.1414 29.559 40.0936 25.5787 40.3827 21.6323H40.3796Z" fill="white"/>
<path d="M58.4984 53.6752C50.4648 53.6752 42.4312 53.6752 34.3977 53.6752C34.0993 53.6752 33.801 53.6875 33.5057 53.6566C32.7953 53.5825 32.377 53.1687 32.2724 52.4647C32.1709 51.7792 32.5738 51.1616 33.2535 50.9763C33.5611 50.8929 33.8933 50.8929 34.2162 50.8929C50.4463 50.8899 66.6734 50.8899 82.9035 50.8929C83.2265 50.8929 83.5587 50.8929 83.8662 50.9701C84.549 51.1462 84.9611 51.7637 84.8689 52.4462C84.7735 53.1502 84.3614 53.5733 83.6509 53.6535C83.3557 53.6875 83.0573 53.6721 82.759 53.6721C74.6701 53.6721 66.5842 53.6721 58.4953 53.6721L58.4984 53.6752Z" fill="white"/>
<path d="M66.2857 62.0469C71.8034 62.0469 77.3241 62.0469 82.8418 62.0469C84.2535 62.0469 84.8871 62.4885 84.8779 63.4581C84.8687 64.4215 84.2412 64.8445 82.8172 64.8445C71.7265 64.8445 60.6326 64.8445 49.5419 64.8445C49.4342 64.8445 49.3266 64.8445 49.2159 64.8445C48.0994 64.8198 47.4997 64.3258 47.5089 63.4334C47.515 62.5409 48.1056 62.0531 49.2405 62.05C54.9212 62.0438 60.6019 62.05 66.2857 62.0469Z" fill="white"/>
<path d="M50.2062 67.6367C55.564 67.6367 60.9187 67.6367 66.2765 67.6367C67.6051 67.6367 68.2633 68.0937 68.2725 69.0078C68.2787 69.928 67.5959 70.4251 66.3011 70.4251C55.6163 70.4251 44.9285 70.4251 34.2437 70.4251C33.9484 70.4251 33.6439 70.4251 33.3579 70.3634C32.6536 70.212 32.2322 69.6439 32.2661 68.9522C32.2968 68.2605 32.7766 67.7479 33.4932 67.6645C33.7885 67.6305 34.0868 67.6398 34.3852 67.6398C39.6599 67.6398 44.9346 67.6398 50.2093 67.6398L50.2062 67.6367Z" fill="white"/>
<path d="M48.1457 59.2517C43.5231 59.2517 38.9004 59.2517 34.2746 59.2517C33.9763 59.2517 33.6749 59.261 33.3858 59.2116C32.7183 59.0942 32.3308 58.6681 32.2724 57.998C32.2109 57.2878 32.543 56.7814 33.2197 56.5714C33.5211 56.4757 33.8594 56.4695 34.1793 56.4695C43.5077 56.4633 52.8361 56.4633 62.1645 56.4695C62.512 56.4695 62.878 56.4818 63.201 56.593C63.8346 56.8122 64.1452 57.3094 64.0898 57.9856C64.0314 58.6557 63.6562 59.0911 62.9888 59.2116C62.672 59.2671 62.3429 59.2548 62.0199 59.2548C57.3973 59.2548 52.7746 59.2548 48.1488 59.2548L48.1457 59.2517Z" fill="white"/>
<path d="M75.8386 59.2509C73.4304 59.2509 71.0222 59.2571 68.614 59.2509C67.516 59.2478 66.8762 58.7198 66.8824 57.8582C66.8916 57.0029 67.5406 56.4687 68.6324 56.4656C73.4765 56.4594 78.3207 56.4594 83.1648 56.4656C84.4443 56.4656 85.1886 57.3456 84.7949 58.3554C84.515 59.0718 83.9337 59.2571 83.2232 59.254C80.7596 59.2447 78.2991 59.2509 75.8356 59.2509H75.8386Z" fill="white"/>
<path d="M38.5221 62.053C40.0876 62.053 41.6562 62.0252 43.2217 62.0622C44.3566 62.09 45.0732 63.0905 44.5565 63.9798C44.3258 64.3751 43.7353 64.7889 43.3016 64.7981C40.0876 64.8661 36.8736 64.8537 33.6595 64.8228C32.7953 64.8167 32.2632 64.2207 32.2632 63.4425C32.2632 62.6644 32.7953 62.0839 33.6595 62.0653C35.2804 62.0283 36.9012 62.0561 38.5221 62.0561C38.5221 62.0561 38.5221 62.0561 38.5221 62.053Z" fill="white"/>
<path d="M76.5859 26.612C77.4317 26.3557 78.2775 26.0037 79.1571 25.8617C80.0275 25.7227 80.6211 26.2631 80.7073 27.0382C80.7965 27.8225 80.3443 28.471 79.4862 28.5729C78.5174 28.6871 78.0591 29.1781 77.93 30.1292C77.8254 30.9166 77.2595 31.3921 76.5767 31.389C75.8908 31.389 75.3218 30.9166 75.2234 30.123C75.1034 29.1596 74.6359 28.6902 73.6702 28.5729C72.8213 28.471 72.3415 27.7885 72.4399 27.0382C72.5414 26.2754 73.1566 25.7258 74.0024 25.8647C74.882 26.0099 75.7309 26.3588 76.5797 26.6151L76.5859 26.612Z" fill="white"/>
<path d="M109.431 20.3254C106.312 20.3193 103.193 20.3193 100.075 20.3223H99.0811C99.0965 20.4181 99.1088 20.5169 99.1088 20.625C99.1088 21.8138 99.0903 22.9965 99.0104 24.173C99.3241 24.173 99.6378 24.173 99.9515 24.173C102.969 24.173 105.989 24.1606 109.006 24.1792C111.451 24.1915 112.734 25.4298 112.737 27.8661C112.749 47.4714 112.743 67.0766 112.743 86.6818C112.743 86.9073 112.715 87.1327 112.697 87.4353L94.6676 87.4415C92.6007 87.4785 92.6869 87.4909 91.5919 87.4415C91.4074 87.4322 91.5919 87.4415 90.7861 87.4291H26.2746C25.8717 87.4353 25.7948 87.4415 25.7979 87.4415C25.7917 87.4415 25.7856 87.4415 25.7764 87.4415C25.4688 87.4322 25.7764 87.4415 24.7645 87.4878C23.7126 87.531 22.6546 87.5248 21.5935 87.5403C21.4028 87.5403 21.2306 87.5156 21.0737 87.4662H3.74556V86.1847C3.74556 66.8882 3.74556 47.5918 3.74556 28.2923C3.74556 25.3217 4.89584 24.173 7.86076 24.173C10.8872 24.173 13.9136 24.173 16.9677 24.173H17.0446C17.0385 24.1359 17.0292 24.0989 17.0262 24.0649C16.9954 23.6419 17.0323 23.2096 17.0477 22.7896C17.0784 21.962 17.0292 21.1499 17.0108 20.3254H16.9646C13.846 20.3254 10.7672 20.3254 7.68852 20.3285C3.30574 20.3347 0.51306 23.1416 0.509985 27.5573C0.503833 50.8712 0.503833 74.185 0.509985 97.4988C0.509985 101.97 3.32112 104.774 7.77464 104.777C19.0961 104.777 30.4144 104.777 41.7358 104.777H43.1968C41.9757 109.489 40.7947 114.044 39.6075 118.617C37.8913 118.617 36.3196 118.605 34.748 118.62C33.3609 118.636 32.6873 119.222 32.6781 120.38C32.6689 121.551 33.3332 122.165 34.7142 122.165C50.5998 122.171 66.4886 122.171 82.3742 122.165C83.7583 122.165 84.4318 121.557 84.4318 120.399C84.4318 119.235 83.7614 118.636 82.3773 118.623C80.7718 118.605 79.1633 118.62 77.4932 118.62C76.2999 113.995 75.1219 109.443 73.9193 104.78H75.4694C86.7909 104.78 98.1092 104.78 109.431 104.78C113.733 104.78 116.594 101.942 116.594 97.6347C116.603 74.2437 116.603 50.8527 116.594 27.4616C116.594 23.1478 113.758 20.3409 109.431 20.3285V20.3254ZM43.086 119.056C43.6212 116.981 44.1318 114.989 44.6454 112.997C45.2421 110.69 45.8664 108.39 46.4231 106.071C46.5707 105.46 46.826 105.28 47.4288 105.28C54.7181 105.299 62.0043 105.284 69.2935 105.317C69.595 105.317 70.1024 105.651 70.1701 105.917C71.2712 110.23 72.3169 114.56 73.4149 119.056H43.0891H43.086ZM112.737 98.0948C112.694 100.38 111.387 101.664 109.123 101.664C75.208 101.668 41.296 101.671 7.38096 101.664C5.03732 101.664 3.79784 100.463 3.75478 98.1442C3.7148 95.9178 3.74556 93.6883 3.74556 91.3168H112.608C112.654 91.5762 112.737 91.8294 112.74 92.0857C112.752 94.0898 112.774 96.0938 112.74 98.0948H112.737Z" fill="white"/>
<path d="M61.2537 96.617C61.2537 98.2412 59.8942 99.6215 58.2764 99.6369C56.6125 99.6524 55.21 98.235 55.2377 96.5645C55.2654 94.9557 56.671 93.5784 58.2734 93.5939C59.8788 93.6093 61.2537 95.0051 61.2537 96.617Z" fill="white"/>
</g>
<defs>
<clipPath id="clip0_664_5432">
<rect width="116.093" height="121.451" fill="white" transform="translate(0.506836 0.722656)"/>
</clipPath>
</defs>
</svg>
