<svg width="117" height="122" viewBox="0 0 117 122" fill="none" xmlns="http://www.w3.org/2000/svg">
<g clip-path="url(#clip0_664_5500)">
<path d="M100.139 5.42183V79.0013C99.7733 79.8224 99.4995 80.7048 99.0197 81.4524C98.1985 82.7361 96.8637 83.3213 95.4305 83.7013H21.7136C18.0505 82.7821 16.9525 80.1012 16.9709 77.0557C17.0478 62.3459 17.0048 47.6362 17.0048 32.9264C17.0048 24.0993 17.0017 15.2753 17.0048 6.44823C17.0048 3.69073 18.561 1.65324 21.1999 0.8842C21.323 0.847434 21.4337 0.7739 21.5506 0.71875C46.2326 0.71875 70.9115 0.71875 95.5935 0.71875C96.3162 1.04965 97.0882 1.31008 97.7556 1.72984C99.0997 2.57853 99.7579 3.92358 100.139 5.41876V5.42183ZM19.7698 42.2131C19.7698 54.0428 19.7698 65.8694 19.7698 77.6991C19.7698 79.8714 20.8339 80.9376 23.0023 80.9376C46.7031 80.9376 70.404 80.9376 94.1049 80.9376C96.3224 80.9376 97.3712 79.8806 97.3712 77.6501C97.3712 54.0213 97.3712 30.3895 97.3712 6.76075C97.3712 4.5333 96.3224 3.48238 94.0987 3.48238C70.4255 3.48238 46.7493 3.48238 23.0761 3.48238C20.797 3.48238 19.7698 4.51492 19.7698 6.80977C19.7698 18.6119 19.7698 30.414 19.7698 42.2131Z" fill="white"/>
<path d="M58.5687 78.1764C47.6902 78.1764 36.8116 78.1764 25.9362 78.1764C23.5526 78.1764 22.5376 77.1592 22.5376 74.7693C22.5376 54.8908 22.5376 35.0122 22.5376 15.1337C22.5376 12.8051 23.571 11.7695 25.8993 11.7695C47.6809 11.7695 69.4657 11.7695 91.2474 11.7695C93.5695 11.7695 94.6059 12.8082 94.6059 15.1368C94.6059 35.0429 94.6059 54.949 94.6059 74.8521C94.6059 77.1224 93.5541 78.1733 91.2843 78.1733C80.378 78.1733 69.4749 78.1733 58.5687 78.1733V78.1764ZM25.3518 75.3668H91.7764V14.6006H25.3518V75.3668Z" fill="white"/>
<path d="M87.6369 9.00812C86.3144 9.00812 84.9919 9.02037 83.6663 9.00506C82.7251 8.99586 82.1069 8.41679 82.1285 7.60792C82.1469 6.83582 82.7559 6.2598 83.6478 6.25368C86.3206 6.23836 88.9933 6.23836 91.6691 6.25368C92.6287 6.2598 93.2038 6.82663 93.1885 7.66613C93.1731 8.48419 92.6256 8.9928 91.6906 9.00506C90.3404 9.02037 88.9902 9.00812 87.64 9.00812H87.6369Z" fill="white"/>
<path d="M32.9364 9.00582C31.5339 9.00582 30.8757 8.57688 30.8634 7.64852C30.8511 6.69871 31.5401 6.24219 32.9826 6.24219C33.0902 6.24219 33.1979 6.24219 33.3055 6.24219C34.3666 6.25751 35.0279 6.80288 35.0125 7.65464C34.9971 8.48802 34.3758 8.9905 33.3393 9.00582C33.204 9.00582 33.0687 9.00582 32.9333 9.00582H32.9364Z" fill="white"/>
<path d="M25.9703 9.00845C25.835 9.00845 25.6996 9.00845 25.5643 9.00845C24.5309 8.99007 23.9435 8.48146 23.9558 7.61438C23.965 6.78713 24.5524 6.27239 25.5243 6.24788C25.9026 6.23869 26.2809 6.2295 26.6562 6.25401C27.5389 6.30916 28.0925 6.88824 28.0617 7.6971C28.031 8.47533 27.4897 8.96862 26.6162 9.00539C26.4009 9.01458 26.1856 9.00539 25.9672 9.00539L25.9703 9.00845Z" fill="white"/>
<path d="M39.8723 8.99954C39.6293 8.99954 39.3863 9.01486 39.1434 8.99954C38.3529 8.94439 37.8085 8.39902 37.7962 7.66368C37.7808 6.9406 38.316 6.33702 39.0911 6.26348C39.5463 6.22059 40.0076 6.23284 40.4659 6.25123C41.3547 6.29106 41.9453 6.86401 41.936 7.64836C41.9299 8.43578 41.3363 8.97503 40.4382 9.00567C40.2506 9.0118 40.0599 9.00567 39.8723 9.00567C39.8723 9.00567 39.8723 9.00567 39.8723 9.0026V8.99954Z" fill="white"/>
<path d="M74.6266 41.4054C78.7695 41.4054 82.9093 41.4054 87.0522 41.4054C88.2609 41.4054 88.6423 41.7884 88.6454 42.9956C88.6454 50.4684 88.6454 57.9412 88.6454 65.411C88.6454 66.6243 88.2609 67.0104 87.0614 67.0134C78.7787 67.0134 70.496 67.0134 62.2134 67.0134C61.0477 67.0134 60.6602 66.6243 60.6602 65.4539C60.6602 57.9351 60.6602 50.4194 60.6602 42.9006C60.6602 41.7976 61.0692 41.4054 62.2041 41.4023C66.347 41.4023 70.4868 41.4023 74.6297 41.4023L74.6266 41.4054ZM72.0277 61.5873C72.2061 61.3912 72.3384 61.2411 72.4737 61.0909C74.3652 59.032 76.2598 56.9731 78.1544 54.9172C79.0371 53.9582 79.5415 53.9521 80.4765 54.8865C82.2142 56.6207 83.952 58.3549 85.6928 60.089C85.8589 60.2545 86.0403 60.4077 86.271 60.616V43.7707H63.0253V61.7987C63.2591 61.5842 63.4221 61.4433 63.5789 61.2901C64.5631 60.3127 65.5443 59.3323 66.5254 58.3518C67.4173 57.4633 67.9156 57.4663 68.8198 58.3671C69.8809 59.4242 70.9359 60.4873 72.0277 61.5812V61.5873ZM79.3539 57.0497C77.4285 59.1484 75.5647 61.1798 73.6209 63.2939C73.8916 63.5114 74.1253 63.6401 74.2729 63.8301C74.8019 64.5102 75.454 64.7278 76.3305 64.7125C79.3969 64.6542 82.4664 64.691 85.5359 64.691H86.4063C86.2802 64.3172 86.2648 63.9832 86.0926 63.8055C83.8781 61.5597 81.6422 59.3353 79.3539 57.0497ZM67.6695 60.6804C66.3808 61.9856 65.0522 63.3306 63.7789 64.6236H71.6986C70.3023 63.2571 68.9613 61.9458 67.6695 60.6804Z" fill="white"/>
<path d="M42.0097 46.0555C37.8914 46.0555 33.7731 46.0555 29.6548 46.0555C28.3446 46.0555 28.0155 45.7277 28.0155 44.3949C28.0125 36.922 28.0155 29.4522 28.0155 21.9794C28.0155 20.8887 28.4061 20.4812 29.4826 20.4812C37.833 20.475 46.1833 20.475 54.5337 20.4812C55.6132 20.4812 56.0008 20.8856 56.0008 21.9763C56.0008 29.4921 56.0008 37.0109 56.0008 44.5266C56.0008 45.6848 55.6194 46.0555 54.4322 46.0555C50.2924 46.0555 46.1495 46.0555 42.0097 46.0555ZM39.3677 40.6569C41.4714 38.3682 43.5014 36.1591 45.5313 33.95C46.3463 33.0646 46.9184 33.0462 47.7611 33.8826C49.5511 35.6628 51.335 37.449 53.122 39.2322C53.2665 39.3762 53.4234 39.511 53.6356 39.704V22.8526H30.3899V40.9081C31.6417 39.652 32.792 38.4969 33.9484 37.3479C34.7543 36.5452 35.2802 36.5482 36.0952 37.3602C37.1717 38.4356 38.2389 39.5202 39.3708 40.663L39.3677 40.6569ZM40.9301 42.4003C41.1946 42.5841 41.4745 42.6975 41.6345 42.9058C42.1542 43.5799 42.794 43.7668 43.6428 43.7514C46.7369 43.6994 49.8341 43.73 52.9282 43.73C53.1681 43.73 53.4049 43.73 53.8847 43.73C53.6141 43.2582 53.5003 42.9181 53.2727 42.6883C51.2274 40.6171 49.1605 38.5673 47.0999 36.5145C46.9768 36.392 46.8323 36.2909 46.6723 36.156C44.7839 38.2089 42.9262 40.231 40.9301 42.4033V42.4003ZM31.0543 43.6748H39.0786C37.67 42.2992 36.329 40.9878 35.0218 39.7102C33.7239 41.0062 32.3952 42.3329 31.0512 43.6748H31.0543Z" fill="white"/>
<path d="M38.5374 60.0402C41.4716 60.0402 44.4088 60.0402 47.343 60.0402C47.5706 60.0402 47.8013 60.031 48.0227 60.0647C48.5948 60.1505 48.9177 60.5212 48.9823 61.0666C49.0469 61.615 48.7978 62.0593 48.2626 62.2462C47.9704 62.3473 47.6382 62.3626 47.3245 62.3626C41.4531 62.3688 35.5817 62.3688 29.7134 62.3657C29.5781 62.3657 29.4397 62.3718 29.3044 62.3657C28.5201 62.3228 27.9972 61.8234 28.0218 61.1524C28.0495 60.4906 28.5385 60.0494 29.3197 60.0463C32.3923 60.0371 35.4649 60.0433 38.5344 60.0433L38.5374 60.0402Z" fill="white"/>
<path d="M78.2071 29.791C81.2551 29.791 84.3061 29.788 87.3541 29.7941C88.1137 29.7941 88.6212 30.2629 88.6335 30.9185C88.6458 31.5681 88.1353 32.0644 87.4002 32.1104C87.2403 32.1196 87.0803 32.1135 86.9235 32.1135C84.9428 32.1135 82.9651 32.1135 80.9844 32.1135C77.0937 32.1135 73.2031 32.1135 69.3093 32.1135C69.0386 32.1135 68.7557 32.1165 68.5004 32.043C67.9253 31.8775 67.6454 31.4517 67.6608 30.8664C67.6761 30.3027 68.1344 29.8615 68.7157 29.8033C68.9187 29.7818 69.1248 29.791 69.3308 29.791C72.2896 29.791 75.2484 29.791 78.204 29.791H78.2071Z" fill="white"/>
<path d="M45.562 55.379C48.4746 55.379 51.3873 55.379 54.2999 55.379C54.549 55.379 54.8043 55.3759 55.0473 55.4188C55.6439 55.526 55.9669 55.9243 55.9853 56.5065C56.0038 57.058 55.7208 57.4655 55.1734 57.6279C54.9611 57.6922 54.7243 57.7075 54.4998 57.7075C48.5146 57.7106 42.5325 57.7106 36.5473 57.7075C36.3013 57.7075 36.0398 57.6922 35.8092 57.6187C35.2678 57.444 34.9972 57.0212 35.0341 56.4728C35.0679 55.9243 35.3786 55.5352 35.9445 55.428C36.209 55.379 36.4889 55.382 36.7595 55.382C39.6937 55.382 42.6309 55.382 45.5651 55.382L45.562 55.379Z" fill="white"/>
<path d="M71.17 25.1379C74.1041 25.1379 77.0413 25.1379 79.9755 25.1379C80.2031 25.1379 80.4338 25.1287 80.6552 25.1624C81.2242 25.2482 81.5502 25.6128 81.6148 26.1612C81.6794 26.7127 81.4364 27.1539 80.9013 27.3439C80.6122 27.445 80.2769 27.4603 79.9632 27.4603C74.0918 27.4664 68.2235 27.4664 62.3521 27.4634C62.2168 27.4634 62.0784 27.4695 61.943 27.4634C61.1588 27.4205 60.6359 26.9272 60.6605 26.2531C60.6851 25.5913 61.1741 25.1471 61.9523 25.144C65.0248 25.1348 68.0943 25.1409 71.1669 25.1409L71.17 25.1379Z" fill="white"/>
<path d="M38.5344 53.0434C35.6218 53.0434 32.7091 53.0434 29.7965 53.0434C29.5474 53.0434 29.2952 53.0495 29.046 53.0158C28.4524 52.9362 28.0434 52.4888 28.0218 51.922C28.0003 51.3675 28.3879 50.8772 28.9722 50.7639C29.2152 50.7148 29.4705 50.7148 29.7196 50.7148C35.591 50.7148 41.4624 50.7148 47.3307 50.7148C47.423 50.7148 47.5122 50.7148 47.6044 50.7148C48.4687 50.7424 49.0008 51.1836 49.0038 51.8791C49.0069 52.5777 48.4841 53.0373 47.6137 53.0403C44.5872 53.0495 41.5608 53.0434 38.5344 53.0434Z" fill="white"/>
<path d="M71.1698 34.4367C74.104 34.4367 77.0412 34.4367 79.9754 34.4367C80.1814 34.4367 80.3875 34.4244 80.5905 34.4489C81.1933 34.5194 81.6454 35.0188 81.6423 35.5979C81.6423 36.1463 81.2179 36.6427 80.652 36.7376C80.4736 36.7683 80.2891 36.7591 80.1076 36.7591C74.1224 36.7591 68.1372 36.7591 62.152 36.7591C62.0382 36.7591 61.9244 36.7652 61.8106 36.756C61.1279 36.7009 60.6388 36.1923 60.6604 35.5611C60.6819 34.9514 61.1555 34.4887 61.8137 34.4428C61.9952 34.4305 62.1766 34.4367 62.3612 34.4367C65.2953 34.4367 68.2326 34.4367 71.1667 34.4367H71.1698Z" fill="white"/>
<path d="M86.3237 36.7537C85.9146 36.7537 85.5025 36.7782 85.0965 36.7506C84.4322 36.7046 83.9923 36.2297 83.9893 35.6016C83.9893 34.9674 84.426 34.4772 85.0873 34.4527C85.9054 34.422 86.7266 34.422 87.5416 34.4527C88.1537 34.4772 88.6089 34.9797 88.6304 35.5587C88.6519 36.1562 88.1844 36.6924 87.5478 36.7475C87.1418 36.7812 86.7297 36.7537 86.3206 36.7537H86.3237Z" fill="white"/>
<path d="M63.0348 32.1102C62.6472 32.1102 62.2597 32.1286 61.8753 32.1072C61.1433 32.0673 60.6389 31.5526 60.6635 30.903C60.6881 30.2658 61.1709 29.8123 61.8876 29.7939C62.638 29.7786 63.3885 29.7755 64.1389 29.7939C64.8309 29.8154 65.2738 30.2474 65.3046 30.8785C65.3354 31.5311 64.8894 32.0398 64.1943 32.098C63.8098 32.1317 63.4223 32.1041 63.0348 32.1041C63.0348 32.1041 63.0348 32.1041 63.0348 32.1072V32.1102Z" fill="white"/>
<path d="M86.2991 25.152C86.7296 25.152 87.1664 25.1245 87.5939 25.1582C88.1783 25.2072 88.6242 25.6698 88.6273 26.2336C88.6273 26.8157 88.3505 27.3213 87.7661 27.3734C86.8004 27.4591 85.8162 27.4683 84.8504 27.3734C84.2415 27.3151 83.9523 26.8004 83.9954 26.1723C84.0354 25.5963 84.4537 25.2072 85.0719 25.1459C85.118 25.1428 85.1641 25.1398 85.2072 25.1367C85.5701 25.1367 85.933 25.1367 86.2991 25.1367C86.2991 25.1398 86.2991 25.1459 86.2991 25.149V25.152Z" fill="white"/>
<path d="M53.7342 60.0464C54.1218 60.0464 54.5093 60.028 54.8937 60.0495C55.5304 60.0862 55.8872 60.4661 55.9825 61.0697C56.0686 61.6151 55.6996 62.2279 55.1244 62.2769C54.1587 62.3566 53.1745 62.3688 52.2087 62.2769C51.5997 62.2156 51.3137 61.7009 51.3568 61.0728C51.3967 60.4999 51.8212 60.1107 52.4363 60.0495C52.4824 60.0464 52.5286 60.0433 52.5716 60.0433C52.9592 60.0433 53.3436 60.0433 53.7312 60.0433V60.0495L53.7342 60.0464Z" fill="white"/>
<path d="M53.6171 53.0146C53.1866 53.0146 52.7498 53.0575 52.3254 53.0054C51.7318 52.9319 51.4027 52.5489 51.3566 51.9545C51.3135 51.3693 51.6672 50.827 52.2577 50.7841C53.1804 50.7136 54.1185 50.7136 55.0443 50.778C55.6348 50.8178 56.0131 51.3601 55.9946 51.9208C55.9762 52.4876 55.5733 52.9534 54.9797 53.0116C54.5306 53.0575 54.0723 53.0208 53.6171 53.0208C53.6171 53.0208 53.6171 53.0208 53.6171 53.0177V53.0146Z" fill="white"/>
<path d="M30.3256 57.7024C29.9381 57.7024 29.5505 57.73 29.1661 57.6963C28.4617 57.635 27.9973 57.1264 28.0219 56.4983C28.0465 55.8886 28.5017 55.4229 29.1845 55.3984C29.978 55.3677 30.7746 55.3647 31.5681 55.4045C32.2263 55.4351 32.6385 55.8794 32.6631 56.483C32.6907 57.1203 32.2909 57.6105 31.6173 57.684C31.1898 57.73 30.7562 57.6932 30.3256 57.6932C30.3256 57.6963 30.3256 57.7024 30.3256 57.7055V57.7024Z" fill="white"/>
<path d="M74.6329 50.7096C74.6391 53.271 72.5815 55.3483 70.0102 55.3728C67.4698 55.3974 65.3445 53.3078 65.3137 50.7647C65.2861 48.2064 67.4267 46.0525 69.9887 46.0586C72.5446 46.0647 74.6268 48.1482 74.6329 50.7096ZM69.9979 53.0382C71.2989 53.032 72.3139 51.9934 72.2985 50.6882C72.2831 49.4258 71.2589 48.4025 70.001 48.3872C68.7369 48.3749 67.6481 49.4503 67.6451 50.7157C67.6451 51.9934 68.7062 53.0412 69.9979 53.0351V53.0382Z" fill="white"/>
<path d="M42.0036 29.8784C41.9298 32.4827 39.7892 34.511 37.1995 34.4344C34.6621 34.3578 32.586 32.161 32.6814 29.6516C32.7829 27.0473 34.9081 25.0711 37.5286 25.1508C40.0506 25.2243 42.0744 27.3629 42.0036 29.8784ZM39.6662 29.7558C39.6508 28.4536 38.6174 27.4548 37.301 27.4732C36.04 27.4916 35.0158 28.5241 35.0127 29.7772C35.0096 31.0426 36.0892 32.1211 37.3594 32.115C38.645 32.1089 39.6815 31.0488 39.6692 29.7558H39.6662Z" fill="white"/>
<path d="M109.431 20.2256C105.703 20.2165 101.975 20.2195 98.2476 20.2226C98.4321 20.4708 98.549 20.7771 98.5613 21.1203C98.5952 22.0916 98.7582 23.1731 98.5183 24.0402H98.995C102.332 24.0402 105.669 24.0279 109.006 24.0463C111.451 24.0586 112.734 25.2872 112.737 27.7046C112.749 47.1573 112.743 66.6099 112.743 86.0626C112.743 86.2863 112.715 86.5099 112.697 86.8102L94.6676 86.8163C92.6007 86.8531 92.6869 86.8653 91.5919 86.8163C91.4074 86.8071 91.5919 86.8163 90.7861 86.8041H26.2746C25.8717 86.8102 25.7948 86.8163 25.7979 86.8163C25.7917 86.8163 25.7856 86.8163 25.7764 86.8163C25.4688 86.8071 25.7764 86.8163 24.7645 86.8623C23.7126 86.9052 22.6546 86.8991 21.5935 86.9144C21.4028 86.9144 21.2306 86.8899 21.0737 86.8408H3.74556V85.5693C3.74556 66.423 3.74556 47.2768 3.74556 28.1274C3.74556 25.18 4.89584 24.0402 7.86076 24.0402C11.5238 24.0402 15.1869 24.0402 18.9023 24.0402C18.5455 22.7901 18.4748 21.5278 18.4686 20.2195C14.8363 20.2195 11.2624 20.2165 7.6916 20.2226C3.30574 20.2348 0.51306 23.0199 0.509985 27.4013C0.503833 50.5337 0.503833 73.6661 0.509985 96.7985C0.509985 101.235 3.32112 104.017 7.77464 104.02C19.0961 104.02 30.4144 104.02 41.7358 104.02H43.1968C41.9757 108.696 40.7947 113.215 39.6075 117.752C37.8913 117.752 36.3196 117.74 34.748 117.756C33.3609 117.771 32.6873 118.353 32.6781 119.502C32.6689 120.663 33.3332 121.273 34.7142 121.273C50.5998 121.279 66.4886 121.279 82.3742 121.273C83.7583 121.273 84.4318 120.669 84.4318 119.52C84.4318 118.365 83.7614 117.771 82.3773 117.759C80.7718 117.74 79.1633 117.756 77.4932 117.756C76.2999 113.166 75.1219 108.65 73.9193 104.023H75.4694C86.7909 104.023 98.1092 104.023 109.431 104.023C113.733 104.023 116.594 101.207 116.594 96.9333C116.603 73.7243 116.603 50.5153 116.594 27.3063C116.594 23.026 113.758 20.241 109.431 20.2287V20.2256ZM43.086 118.188C43.6212 116.129 44.1318 114.152 44.6454 112.176C45.2421 109.887 45.8664 107.605 46.4231 105.304C46.5707 104.697 46.826 104.52 47.4288 104.52C54.7181 104.538 62.0043 104.523 69.2935 104.556C69.595 104.556 70.1024 104.887 70.1701 105.151C71.2712 109.431 72.3169 113.727 73.4149 118.188H43.0891H43.086ZM112.737 97.3898C112.694 99.6571 111.387 100.932 109.123 100.932C75.208 100.935 41.296 100.938 7.38096 100.932C5.03732 100.932 3.79784 99.7398 3.75478 97.4389C3.7148 95.2298 3.74556 93.0176 3.74556 90.6646H112.608C112.654 90.9219 112.737 91.1732 112.74 91.4275C112.749 93.416 112.774 95.4044 112.74 97.3898H112.737Z" fill="white"/>
<path d="M61.2537 95.9216C61.2537 97.5332 59.8942 98.9027 58.2764 98.918C56.6125 98.9334 55.21 97.527 55.2377 95.8695C55.2654 94.2732 56.671 92.9067 58.2734 92.922C59.8788 92.9373 61.2537 94.3222 61.2537 95.9216Z" fill="white"/>
</g>
<defs>
<clipPath id="clip0_664_5500">
<rect width="116.093" height="120.558" fill="white" transform="translate(0.506836 0.722656)"/>
</clipPath>
</defs>
</svg>
